<svg aria-hidden="true" style="position: absolute; width: 0; height: 0; overflow: hidden;" version="1.1" xmlns="http://www.w3.org/2000/svg" xmlns:xlink="http://www.w3.org/1999/xlink">
<defs>
<symbol id="icon-slack" viewBox="0 0 32 32">
<title>slack</title>
<path d="M13.172 14.66l1.38 4.113 4.273-1.432-1.38-4.099-4.273 1.44v-0.023z"></path>
<path d="M25.099 18.74l-2.073 0.695 0.72 2.147c0.291 0.867-0.18 1.807-1.048 2.099-0.2 0.060-0.38 0.089-0.58 0.084-0.681-0.020-1.301-0.451-1.54-1.132l-0.72-2.143-4.28 1.431 0.719 2.144c0.281 0.869-0.18 1.811-1.059 2.1-0.2 0.064-0.38 0.089-0.58 0.085-0.68-0.020-1.301-0.453-1.541-1.133l-0.719-2.159-2.081 0.699c-0.2 0.060-0.38 0.081-0.58 0.081-0.681-0.021-1.301-0.46-1.54-1.14-0.3-0.88 0.18-1.819 1.040-2.1l2.080-0.7-1.316-4.117-2.068 0.7c-0.188 0.064-0.38 0.088-0.571 0.085-0.66-0.021-1.3-0.451-1.521-1.131-0.279-0.867 0.18-1.805 1.061-2.099l2.080-0.693-0.72-2.14c-0.28-0.872 0.181-1.812 1.061-2.1 0.879-0.293 1.817 0.181 2.099 1.044l0.719 2.144 4.26-1.432-0.72-2.14c-0.279-0.86 0.18-1.8 1.052-2.099 0.869-0.281 1.812 0.18 2.1 1.055l0.72 2.161 2.073-0.68c0.868-0.292 1.808 0.18 2.1 1.039 0.291 0.872-0.18 1.812-1.045 2.1l-2.076 0.699 1.38 4.115 2.068-0.688c0.869-0.281 1.811 0.18 2.1 1.060 0.293 0.88-0.18 1.82-1.039 2.099l-0.015-0.039zM30.66 11.599c-3.3-10.991-8.065-13.56-19.061-10.259-10.991 3.299-13.56 8.061-10.259 19.061 3.3 10.993 8.061 13.56 19.061 10.259 10.993-3.3 13.56-8.061 10.259-19.061z"></path>
</symbol>
<symbol id="icon-hipchat" viewBox="0 0 32 32">
<title>hipchat</title>
<path d="M26.315 25.408s0.137-0.097 0.356-0.264c3.276-2.533 5.329-6.207 5.329-10.292 0-7.62-7.164-13.803-15.996-13.803-8.835 0-16.004 6.183-16.004 13.803 0 7.623 7.161 13.808 15.997 13.808 1.129 0 2.259-0.097 3.365-0.304l0.349-0.060c2.244 1.456 5.519 2.653 8.384 2.653 0.887 0 1.304-0.728 0.736-1.472-0.864-1.060-2.055-2.757-2.517-4.069zM24.365 19.373c-0.955 1.425-3.912 3.852-8.339 3.852h-0.061c-4.437 0-7.391-2.441-8.339-3.852-0.185-0.207-0.315-0.468-0.363-0.756l-0.001-0.009c-0.001-0.015-0.002-0.033-0.002-0.050 0-0.341 0.262-0.622 0.595-0.651l0.002-0c0.011-0.004 0.019-0.004 0.028-0.004 0.156 0.008 0.307 0.057 0.437 0.148 2.073 1.701 4.751 2.735 7.671 2.741h0.001c0.040 0 0.087 0.001 0.134 0.001 2.881 0 5.52-1.038 7.563-2.761l-0.018 0.014c0.109-0.101 0.256-0.163 0.417-0.163 0 0 0.001 0 0.001 0h-0c0.356 0 0.637 0.284 0.644 0.633-0.043 0.328-0.171 0.62-0.36 0.861l0.003-0.004h-0.015z"></path>
</symbol>
<symbol id="icon-skype" viewBox="0 0 32 32">
<title>skype</title>
<path d="M16.092 25.165c-5.364 0-7.76-2.639-7.76-4.619 0-1.020 0.748-1.728 1.777-1.728 2.297 0 1.697 3.303 5.983 3.303 2.188 0 3.4-1.193 3.4-2.415 0-0.735-0.359-1.547-1.805-1.905l-4.768-1.193c-3.84-0.965-4.537-3.048-4.537-5.001 0-4.063 3.815-5.588 7.399-5.588 3.295 0 7.191 1.831 7.191 4.265 0 1.045-0.917 1.653-1.937 1.653-1.959 0-1.597-2.716-5.552-2.716-1.959 0-3.056 0.885-3.056 2.156s1.537 1.677 2.876 1.983l3.516 0.783c3.855 0.865 4.832 3.128 4.832 5.259 0 3.301-2.536 5.765-7.629 5.765zM30.799 18.657l-0.039 0.18-0.059-0.32c0.020 0.060 0.059 0.099 0.079 0.16 0.16-0.9 0.241-1.817 0.241-2.736 0-2.039-0.401-4.016-1.197-5.893-0.759-1.797-1.86-3.416-3.236-4.795-1.399-1.377-2.996-2.475-4.793-3.235-1.757-0.841-3.735-1.24-5.771-1.24-0.96 0-1.925 0.093-2.857 0.272l0.159 0.080-0.319-0.044 0.159-0.033c-1.285-0.688-2.727-1.053-4.191-1.053-2.385 0-4.627 0.931-6.315 2.623-1.688 1.691-2.617 3.941-2.617 6.332 0 1.524 0.389 3.020 1.125 4.344l0.027-0.165 0.055 0.319-0.080-0.153c-0.152 0.86-0.229 1.732-0.229 2.607 0 2.040 0.4 4.023 1.179 5.888 0.757 1.816 1.837 3.435 3.236 4.812 1.379 1.4 2.996 2.476 4.793 3.256 1.859 0.8 3.836 1.197 5.872 1.197 0.879 0 1.779-0.080 2.636-0.239l-0.159-0.083 0.32 0.061-0.18 0.040c1.336 0.759 2.835 1.161 4.392 1.161 2.377 0 4.612-0.92 6.311-2.617 1.679-1.679 2.616-3.935 2.616-6.332 0-1.517-0.399-3.016-1.137-4.355z"></path>
</symbol>
<symbol id="icon-signal" viewBox="0 0 32 32">
<title>signal</title>
<path d="M16.016 3.464c-6.96 0-12.603 5.2-12.603 11.612 0 4.021 1.625 7.068 4.207 9.032h-0.007l0.312 4.056v0.005c0 0.023 0 0.041 0.005 0.061v0.008c0.032 0.192 0.2 0.34 0.401 0.34 0.071 0 0.133-0.020 0.192-0.047l0.015-0.011 3.861-2.232c1.139 0.261 2.356 0.399 3.613 0.399 6.96 0 12.603-5.199 12.603-11.613 0-6.413-5.644-11.612-12.605-11.612l0.005 0.001zM13.853 0.96c0.7-0.087 1.415-0.139 2.14-0.139 0.507 0 1 0.027 1.492 0.069l0.076-0.819c-0.52-0.047-1.039-0.072-1.565-0.072-0.76 0-1.513 0.048-2.255 0.145l0.111 0.816 0.001-0.001zM18.916 1.085c1.22 0.22 2.38 0.581 3.48 1.060l0.336-0.756c-0.176-0.075-0.351-0.149-0.529-0.22-1.016-0.4-2.068-0.699-3.14-0.895l-0.147 0.811zM31.141 15.16c-0.020 1.22-0.207 2.408-0.54 3.54l0.787 0.233c0.356-1.204 0.555-2.472 0.575-3.775l-0.821 0.001zM8.993 2.419c1.081-0.519 2.237-0.931 3.448-1.203l-0.18-0.805c-0.841 0.188-1.668 0.439-2.471 0.759-0.396 0.156-0.781 0.327-1.156 0.508l0.359 0.741zM27.193 4.284c-0.941-0.865-1.98-1.609-3.105-2.231l-0.415 0.721c1.081 0.593 2.081 1.308 2.965 2.128l0.555-0.616v-0.003zM20.201 29.401c1.26-0.32 2.46-0.788 3.581-1.373l-0.42-0.711c-1.048 0.551-2.175 0.984-3.361 1.289l0.2 0.795zM4.903 5.34c0.84-0.851 1.796-1.6 2.84-2.233l-0.436-0.705c-0.931 0.563-1.8 1.219-2.593 1.964-0.136 0.125-0.267 0.255-0.4 0.385l0.585 0.588 0.004 0.001zM30.876 20.38l-0.757-0.315c-0.465 1.111-1.071 2.152-1.805 3.109l0.66 0.492c0.769-1.011 1.415-2.115 1.899-3.287h0.004zM27.635 5.911c0.808 0.9 1.496 1.9 2.045 2.971l0.74-0.367c-0.58-1.136-1.305-2.193-2.169-3.155l-0.62 0.551h0.004zM31.040 9.915l-0.757 0.325c0.417 1.104 0.695 2.271 0.805 3.48l0.82-0.081c-0.117-1.275-0.407-2.523-0.868-3.724zM8.515 30.465l-1.292 0.567-0.443-1.367-0.78 0.253 0.584 1.796c0.039 0.111 0.12 0.201 0.223 0.251 0.055 0.023 0.111 0.035 0.168 0.035s0.112-0.012 0.164-0.035l1.711-0.751-0.335-0.749zM13.612 28.875c-0.104-0.021-0.209-0.036-0.316-0.055l-0.62-0.105c-0.081-0.012-0.16 0-0.229 0.031l-2.601 1.137 0.361 0.739 2.46-1.071c0.167 0.028 0.333 0.055 0.495 0.079 0.091 0.023 0.185 0.035 0.279 0.051l0.172-0.805zM18.583 28.901c-0.844 0.139-1.708 0.208-2.589 0.208-0.364 0-0.7-0.020-1.029-0.051l-0.025 0.82c0.335 0.032 0.681 0.053 1.055 0.053 0.931 0 1.844-0.077 2.731-0.221l-0.139-0.808-0.003-0.001zM2.023 9.488c0.493-1.1 1.136-2.131 1.9-3.069l-0.627-0.543c-0.813 0.993-1.488 2.076-2.011 3.236l-0.013 0.028 0.751 0.348zM27.376 24.28c-0.816 0.868-1.747 1.639-2.76 2.304l0.452 0.687c1.075-0.699 2.055-1.52 2.92-2.439l-0.612-0.552zM1.293 19.401c-0.251-1.061-0.391-2.235-0.431-3.561h-0.821c0.040 1.428 0.193 2.673 0.46 3.791l0.792-0.229zM0.717 10.567c-0.396 1.213-0.624 2.471-0.68 3.751l0.82 0.040c0.056-1.231 0.279-2.421 0.649-3.549l-0.789-0.241zM6.316 28.247l-0.787-2.42c-0.027-0.080-0.075-0.145-0.14-0.196-0.309-0.243-0.599-0.488-0.88-0.744l-0.563 0.595c0.259 0.245 0.544 0.483 0.839 0.721l0.748 2.289 0.783-0.245zM3.509 23.857c-0.788-0.921-1.383-1.932-1.807-3.087l-0.764 0.305c0.055 0.143 0.111 0.288 0.168 0.429 0.44 1.061 1.028 2.012 1.789 2.9l0.613-0.548z"></path>
</symbol>
<symbol id="icon-googlehangouts" viewBox="0 0 32 32">
<title>googlehangouts</title>
<path d="M16 0c-7.733 0-14 6.267-14 14 0 7.333 6.667 13.333 14 13.333v4.667c8.467-4.133 14-10.933 14-18 0-7.733-6.267-14-14-14zM15.333 16c0 1.867-1.2 3.333-2.667 3.333v-3.333h-3.333v-6h6v6zM23.333 16c0 1.867-1.2 3.333-2.667 3.333v-3.333h-3.333v-6h6v6z"></path>
</symbol>
<symbol id="icon-line" viewBox="0 0 32 32">
<title>line</title>
<path d="M25.82 13.151c0.465 0 0.84 0.38 0.84 0.841 0 0.46-0.375 0.84-0.84 0.84h-2.34v1.5h2.34c0.465 0 0.84 0.377 0.84 0.84 0 0.459-0.375 0.839-0.84 0.839h-3.181c-0.46 0-0.836-0.38-0.836-0.839v-6.361c0-0.46 0.376-0.84 0.84-0.84h3.181c0.461 0 0.836 0.38 0.836 0.84 0 0.465-0.375 0.84-0.84 0.84h-2.34v1.5h2.34zM20.68 17.172c0 0.36-0.232 0.68-0.576 0.795-0.085 0.028-0.177 0.041-0.265 0.041-0.281 0-0.521-0.12-0.68-0.333l-3.257-4.423v3.92c0 0.459-0.372 0.839-0.841 0.839-0.461 0-0.835-0.38-0.835-0.839v-6.361c0-0.36 0.231-0.68 0.573-0.793 0.080-0.031 0.181-0.044 0.259-0.044 0.26 0 0.5 0.139 0.66 0.339l3.283 4.44v-3.941c0-0.46 0.376-0.84 0.84-0.84 0.46 0 0.84 0.38 0.84 0.84v6.361zM13.025 17.172c0 0.459-0.376 0.839-0.841 0.839-0.46 0-0.836-0.38-0.836-0.839v-6.361c0-0.46 0.376-0.84 0.84-0.84 0.461 0 0.837 0.38 0.837 0.84v6.361zM9.737 18.011h-3.181c-0.46 0-0.84-0.38-0.84-0.839v-6.361c0-0.46 0.38-0.84 0.84-0.84 0.464 0 0.84 0.38 0.84 0.84v5.521h2.341c0.464 0 0.839 0.377 0.839 0.84 0 0.459-0.376 0.839-0.839 0.839zM32 13.752c0-7.161-7.18-12.989-16-12.989s-16 5.828-16 12.989c0 6.415 5.693 11.789 13.38 12.811 0.521 0.109 1.231 0.344 1.411 0.787 0.16 0.401 0.105 1.021 0.051 1.44l-0.219 1.36c-0.060 0.401-0.32 1.581 1.399 0.86 1.721-0.719 9.221-5.437 12.581-9.3 2.299-2.519 3.397-5.099 3.397-7.957z"></path>
</symbol>
<symbol id="icon-telegram" viewBox="0 0 32 32">
<title>telegram</title>
<path d="M12.037 27.783c-0.952 0-0.791-0.361-1.119-1.265l-2.804-9.227 21.569-12.797z"></path>
<path d="M12.037 27.783c0.736 0 1.060-0.336 1.473-0.737l3.921-3.809-4.895-2.952z"></path>
<path d="M12.537 20.284l11.853 8.757c1.353 0.747 2.331 0.361 2.667-1.256l4.827-22.737c0.496-1.983-0.752-2.879-2.045-2.293l-28.339 10.929c-1.933 0.776-1.924 1.856-0.352 2.337l7.273 2.267 16.832-10.617c0.793-0.48 1.524-0.223 0.925 0.309z"></path>
</symbol>
<symbol id="icon-discord" viewBox="0 0 32 32">
<title>discord</title>
<path d="M26.963 0c1.875 0 3.387 1.516 3.476 3.3v28.7l-3.569-3.031-1.96-1.784-2.139-1.864 0.893 2.94h-18.717c-1.869 0-3.387-1.42-3.387-3.301v-21.653c0-1.784 1.52-3.303 3.393-3.303l22.009-0.004zM18.805 7.577h-0.040l-0.269 0.267c2.764 0.8 4.101 2.049 4.101 2.049-1.781-0.891-3.387-1.336-4.992-1.516-1.16-0.18-2.32-0.085-3.3 0h-0.267c-0.627 0-1.96 0.267-3.747 0.98-0.623 0.271-0.98 0.448-0.98 0.448s1.336-1.336 4.28-2.049l-0.18-0.18s-2.229-0.085-4.636 1.693c0 0-2.407 4.192-2.407 9.36 0 0 1.333 2.32 4.991 2.408 0 0 0.533-0.711 1.073-1.336-2.053-0.624-2.853-1.872-2.853-1.872s0.179 0.088 0.447 0.267h0.080c0.040 0 0.059 0.020 0.080 0.040v0.008c0.021 0.021 0.040 0.040 0.080 0.040 0.44 0.181 0.88 0.36 1.24 0.533 0.621 0.269 1.42 0.537 2.4 0.715 1.24 0.18 2.661 0.267 4.28 0 0.8-0.18 1.6-0.356 2.4-0.713 0.52-0.267 1.16-0.533 1.863-0.983 0 0-0.8 1.248-2.94 1.872 0.44 0.621 1.060 1.333 1.060 1.333 3.659-0.080 5.080-2.4 5.16-2.301 0-5.16-2.42-9.36-2.42-9.36-2.18-1.619-4.22-1.68-4.58-1.68l0.075-0.027zM19.029 13.461c0.937 0 1.693 0.8 1.693 1.78 0 0.987-0.76 1.787-1.693 1.787s-1.693-0.8-1.693-1.779c0.003-0.987 0.764-1.784 1.693-1.784zM12.972 13.461c0.933 0 1.688 0.8 1.688 1.78 0 0.987-0.76 1.787-1.693 1.787s-1.693-0.8-1.693-1.779c0-0.987 0.76-1.784 1.693-1.784z"></path>
</symbol>
<symbol id="icon-disqus" viewBox="0 0 32 32">
<title>disqus</title>
<path d="M16.584 31.539c-3.804 0-7.28-1.387-9.968-3.688l-6.616 0.907 2.556-6.311c-0.889-1.967-1.389-4.147-1.389-6.447 0-8.581 6.9-15.539 15.42-15.539 8.507 0 15.413 6.957 15.413 15.539 0 8.584-6.901 15.539-15.416 15.539zM25.004 15.956v-0.044c0-4.484-3.164-7.68-8.616-7.68h-5.885v15.541h5.8c5.493 0 8.7-3.333 8.7-7.817h0.005zM16.451 19.953h-1.72v-7.9h1.72c2.529 0 4.209 1.44 4.209 3.927v0.040c0 2.512-1.68 3.933-4.209 3.933z"></path>
</symbol>
<symbol id="icon-google" viewBox="0 0 32 32">
<title>google</title>
<path d="M16.32 13.713v5.487h9.075c-0.367 2.353-2.741 6.899-9.075 6.899-5.46 0-9.919-4.519-9.919-10.099s4.46-10.099 9.919-10.099c3.107 0 5.188 1.319 6.38 2.465l4.339-4.184c-2.787-2.601-6.4-4.183-10.719-4.183-8.847 0-16 7.153-16 16s7.153 16 16 16c9.235 0 15.36-6.492 15.36-15.635 0-1.051-0.113-1.853-0.252-2.652h-15.108z"></path>
</symbol>
<symbol id="icon-vk" viewBox="0 0 32 32">
<title>vk</title>
<path d="M15.601 25.028h1.916s0.577-0.063 0.872-0.379c0.28-0.295 0.28-0.84 0.28-0.84s-0.041-2.569 1.159-2.947c1.183-0.375 2.683 2.48 4.281 3.577 1.221 0.839 2.14 0.659 2.14 0.659l4.281-0.059s2.243-0.14 1.183-1.901c-0.081-0.14-0.601-1.3-3.161-3.68-2.683-2.481-2.323-2.081 0.901-6.383 1.959-2.62 2.76-4.221 2.5-4.901-0.221-0.64-1.68-0.481-1.68-0.481l-4.803 0.041s-0.36-0.041-0.62 0.12c-0.26 0.159-0.419 0.521-0.419 0.521s-0.763 2.039-1.781 3.76c-2.164 3.639-3.024 3.839-3.364 3.599-0.805-0.521-0.599-2.107-0.599-3.243 0-3.521 0.539-5-1.041-5.38-0.52-0.121-0.908-0.2-2.247-0.221-1.72-0.019-3.171 0.013-3.993 0.415-0.54 0.271-0.96 0.869-0.719 0.9 0.32 0.040 1.039 0.195 1.419 0.716 0.5 0.675 0.479 2.181 0.479 2.181s0.281 4.155-0.659 4.671c-0.66 0.349-1.54-0.373-3.46-3.675-0.98-1.68-1.721-3.56-1.721-3.56s-0.14-0.341-0.399-0.541c-0.303-0.22-0.743-0.3-0.743-0.3l-4.58 0.040s-0.68 0.021-0.919 0.32c-0.221 0.26-0.021 0.82-0.021 0.82s3.581 8.383 7.643 12.604c3.72 3.869 7.941 3.62 7.941 3.62l-0.067-0.073z"></path>
</symbol>
<symbol id="icon-snapchat" viewBox="0 0 32 32">
<title>snapchat</title>
<path d="M16.275 1.057c1.32 0 5.796 0.368 7.907 5.095 0.705 1.591 0.537 4.292 0.399 6.463l-0.004 0.080c-0.016 0.24-0.029 0.46-0.040 0.68 0.1 0.060 0.271 0.12 0.535 0.12 0.4-0.021 0.879-0.16 1.377-0.401 0.22-0.117 0.459-0.139 0.619-0.139 0.243 0 0.479 0.039 0.679 0.12 0.6 0.199 0.979 0.639 0.979 1.117 0.020 0.599-0.52 1.119-1.617 1.557-0.119 0.039-0.279 0.1-0.459 0.159-0.6 0.18-1.519 0.48-1.777 1.080-0.12 0.299-0.081 0.699 0.16 1.157l0.020 0.020c0.080 0.181 2.035 4.633 6.388 5.352 0.34 0.059 0.58 0.36 0.56 0.679 0 0.1-0.020 0.199-0.060 0.3-0.32 0.759-1.697 1.317-4.195 1.695-0.079 0.121-0.16 0.5-0.219 0.76-0.039 0.239-0.099 0.48-0.179 0.737-0.101 0.361-0.36 0.54-0.74 0.54h-0.040c-0.18 0-0.417-0.041-0.717-0.099-0.48-0.1-1.020-0.18-1.697-0.18-0.4 0-0.799 0.020-1.217 0.099-0.8 0.139-1.497 0.619-2.297 1.179-1.137 0.799-2.435 1.717-4.392 1.717-0.080 0-0.159-0.020-0.24-0.020h-0.199c-1.957 0-3.236-0.9-4.372-1.717-0.799-0.56-1.476-1.039-2.276-1.179-0.419-0.060-0.839-0.099-1.237-0.099-0.72 0-1.277 0.119-1.696 0.199-0.281 0.057-0.521 0.099-0.72 0.099-0.499 0-0.697-0.299-0.777-0.56-0.081-0.256-0.12-0.519-0.18-0.756-0.061-0.241-0.14-0.659-0.221-0.76-2.557-0.296-3.933-0.856-4.252-1.635-0.041-0.084-0.069-0.2-0.073-0.3-0.020-0.324 0.22-0.62 0.56-0.679 4.352-0.72 6.307-5.172 6.388-5.36l0.021-0.039c0.24-0.46 0.299-0.86 0.159-1.159-0.26-0.579-1.179-0.877-1.776-1.079-0.161-0.039-0.32-0.099-0.461-0.159-1.476-0.58-1.676-1.24-1.596-1.697 0.12-0.639 0.899-1.057 1.557-1.057 0.195 0 0.36 0.039 0.511 0.099 0.56 0.259 1.052 0.4 1.472 0.4 0.312 0 0.512-0.080 0.62-0.14l-0.061-0.759c-0.131-2.168-0.3-4.868 0.409-6.449 2.052-4.703 6.515-5.063 7.832-5.063l0.559-0.020h0.080z"></path>
</symbol>
<symbol id="icon-reddit" viewBox="0 0 32 32">
<title>reddit</title>
<path d="M2.939 18.732c-0.080 0.368-0.121 0.747-0.121 1.129 0 4.591 5.869 8.332 13.085 8.332 7.213 0 13.083-3.739 13.083-8.332 0-0.365-0.039-0.728-0.109-1.079l-0.020-0.043c-0.028-0.073-0.039-0.147-0.039-0.22-0.403-1.567-1.489-2.988-3.061-4.137-0.060-0.021-0.117-0.052-0.168-0.093-0.035-0.027-0.060-0.056-0.089-0.085-2.389-1.645-5.808-2.677-9.595-2.677-3.753 0-7.139 1.012-9.528 2.628-0.019 0.024-0.039 0.044-0.065 0.065-0.052 0.044-0.112 0.080-0.173 0.1-1.608 1.149-2.723 2.583-3.139 4.164 0 0.077-0.019 0.152-0.049 0.228l-0.011 0.020zM15.969 25.987c-2.392 0-4.076-0.519-5.151-1.596-0.231-0.232-0.231-0.609 0-0.843 0.235-0.22 0.613-0.22 0.847 0 0.84 0.839 2.247 1.257 4.304 1.257 2.056 0 3.455-0.4 4.292-1.239 0.22-0.219 0.6-0.219 0.839 0 0.22 0.24 0.22 0.62 0 0.86-1.079 1.077-2.753 1.597-5.149 1.597l0.019-0.037zM11.161 15.889c-1.219 0-2.236 1.020-2.236 2.236 0 1.213 1.017 2.2 2.236 2.2s2.201-0.987 2.201-2.2c0-1.216-0.985-2.236-2.201-2.236zM20.805 15.889c-1.219 0-2.237 1.020-2.237 2.236 0 1.213 1.019 2.2 2.237 2.2s2.201-0.987 2.201-2.2c0-1.216-0.985-2.236-2.201-2.236zM26.869 13.763c1.383 1.111 2.4 2.428 2.919 3.872 0.6-0.448 0.959-1.152 0.959-1.932 0-1.336-1.087-2.421-2.424-2.421-0.532 0-1.037 0.172-1.453 0.484v-0.003zM3.615 13.284c-1.337 0-2.423 1.088-2.423 2.424 0 0.724 0.319 1.397 0.859 1.852 0.535-1.439 1.563-2.737 2.951-3.835-0.403-0.28-0.884-0.439-1.385-0.439v-0.003zM15.904 29.389c-7.875 0-14.279-4.273-14.279-9.523 0-0.367 0.031-0.725 0.091-1.079-1.057-0.657-1.716-1.816-1.716-3.085 0-1.995 1.636-3.617 3.633-3.617 0.899 0 1.737 0.328 2.396 0.909 2.475-1.588 5.809-2.588 9.483-2.656l2.416-7.365 0.539 0.127s0.021 0 0.021 0.003l5.631 1.324c0.459-1.064 1.517-1.813 2.753-1.813 1.639 0 2.975 1.339 2.975 2.979 0 1.643-1.337 2.979-2.975 2.979s-2.973-1.339-2.973-2.973l-5.135-1.216-1.956 5.969c3.533 0.14 6.729 1.139 9.125 2.695 0.659-0.619 1.525-0.959 2.444-0.959 1.997 0 3.624 1.617 3.624 3.615 0 1.316-0.72 2.515-1.837 3.153 0.039 0.34 0.079 0.659 0.079 0.999-0.020 5.251-6.408 9.524-14.293 9.524l-0.045 0.012zM26.809 3.807c-0.987 0-1.787 0.799-1.787 1.784 0 0.984 0.8 1.787 1.787 1.787 0.976 0 1.773-0.8 1.773-1.779 0-0.977-0.797-1.776-1.796-1.776l0.023-0.016z"></path>
</symbol>
<symbol id="icon-instagram" viewBox="0 0 32 32">
<title>instagram</title>
<path d="M16 0c-4.347 0-4.889 0.020-6.596 0.096-1.704 0.080-2.864 0.348-3.884 0.744-1.052 0.408-1.945 0.956-2.835 1.845s-1.439 1.781-1.845 2.835c-0.396 1.020-0.665 2.18-0.744 3.884-0.080 1.707-0.096 2.249-0.096 6.596s0.020 4.889 0.096 6.596c0.080 1.703 0.348 2.864 0.744 3.884 0.408 1.051 0.956 1.945 1.845 2.835 0.889 0.888 1.781 1.439 2.835 1.845 1.021 0.395 2.181 0.665 3.884 0.744 1.707 0.080 2.249 0.096 6.596 0.096s4.889-0.020 6.596-0.096c1.703-0.080 2.864-0.349 3.884-0.744 1.051-0.408 1.945-0.957 2.835-1.845 0.888-0.889 1.439-1.78 1.845-2.835 0.395-1.020 0.665-2.181 0.744-3.884 0.080-1.707 0.096-2.249 0.096-6.596s-0.020-4.889-0.096-6.596c-0.080-1.703-0.349-2.865-0.744-3.884-0.408-1.052-0.957-1.945-1.845-2.835-0.889-0.889-1.78-1.439-2.835-1.845-1.020-0.396-2.181-0.665-3.884-0.744-1.707-0.080-2.249-0.096-6.596-0.096zM16 2.88c4.271 0 4.78 0.021 6.467 0.095 1.56 0.073 2.407 0.332 2.969 0.553 0.749 0.289 1.28 0.636 1.843 1.195 0.559 0.56 0.905 1.092 1.195 1.841 0.219 0.563 0.48 1.409 0.551 2.969 0.076 1.688 0.093 2.195 0.093 6.467s-0.020 4.78-0.099 6.467c-0.081 1.56-0.341 2.407-0.561 2.969-0.299 0.749-0.639 1.28-1.199 1.843-0.559 0.559-1.099 0.905-1.84 1.195-0.56 0.219-1.42 0.48-2.98 0.551-1.699 0.076-2.199 0.093-6.479 0.093-4.281 0-4.781-0.020-6.479-0.099-1.561-0.081-2.421-0.341-2.981-0.561-0.759-0.299-1.28-0.639-1.839-1.199-0.561-0.559-0.92-1.099-1.2-1.84-0.22-0.56-0.479-1.42-0.56-2.98-0.060-1.68-0.081-2.199-0.081-6.459 0-4.261 0.021-4.781 0.081-6.481 0.081-1.56 0.34-2.419 0.56-2.979 0.28-0.76 0.639-1.28 1.2-1.841 0.559-0.559 1.080-0.919 1.839-1.197 0.56-0.221 1.401-0.481 2.961-0.561 1.7-0.060 2.2-0.080 6.479-0.080l0.060 0.040zM16 7.784c-4.54 0-8.216 3.68-8.216 8.216 0 4.54 3.68 8.216 8.216 8.216 4.54 0 8.216-3.68 8.216-8.216 0-4.54-3.68-8.216-8.216-8.216zM16 21.333c-2.947 0-5.333-2.387-5.333-5.333s2.387-5.333 5.333-5.333 5.333 2.387 5.333 5.333-2.387 5.333-5.333 5.333zM26.461 7.46c0 1.060-0.861 1.92-1.92 1.92-1.060 0-1.92-0.861-1.92-1.92s0.861-1.919 1.92-1.919c1.057-0.001 1.92 0.86 1.92 1.919z"></path>
</symbol>
<symbol id="icon-facebook" viewBox="0 0 32 32">
<title>facebook</title>
<path d="M30.235 0h-28.469c-0.975 0-1.765 0.791-1.765 1.765v28.469c0 0.976 0.791 1.765 1.765 1.765h15.325v-12.392h-4.172v-4.828h4.172v-3.567c0-4.132 2.525-6.38 6.212-6.38 1.767 0 3.285 0.129 3.728 0.188v4.32h-2.561c-2 0-2.389 0.961-2.389 2.361v3.081h4.779l-0.62 4.84h-4.159v12.376h8.153c0.977 0 1.767-0.789 1.767-1.765v-28.469c0-0.975-0.789-1.765-1.765-1.765z"></path>
</symbol>
<symbol id="icon-pinterest" viewBox="0 0 32 32">
<title>pinterest</title>
<path d="M16.023 0c-8.828 0-15.984 7.156-15.984 15.983 0 6.772 4.211 12.556 10.157 14.883-0.14-1.265-0.265-3.204 0.055-4.585 0.292-1.249 1.875-7.943 1.875-7.943s-0.479-0.96-0.479-2.375c0-2.217 1.289-3.881 2.891-3.881 1.365 0 2.024 1.025 2.024 2.251 0 1.372-0.871 3.423-1.323 5.323-0.38 1.591 0.8 2.887 2.367 2.887 2.837 0 5.024-2.993 5.024-7.316 0-3.815-2.751-6.492-6.677-6.492-4.547 0-7.212 3.416-7.212 6.932 0 1.377 0.525 2.857 1.185 3.655 0.132 0.16 0.149 0.3 0.113 0.46-0.12 0.5-0.391 1.599-0.445 1.817-0.071 0.3-0.229 0.361-0.535 0.22-1.993-0.92-3.244-3.837-3.244-6.195 0-5.035 3.664-9.669 10.56-9.669 5.544 0 9.856 3.956 9.856 9.231 0 5.513-3.476 9.949-8.311 9.949-1.619 0-3.139-0.839-3.677-1.839l-0.999 3.797c-0.359 1.393-1.339 3.136-1.997 4.195 1.497 0.46 3.075 0.713 4.733 0.713 8.809 0 15.98-7.153 15.98-15.983 0-8.831-7.171-15.983-15.98-15.983l0.043-0.035z"></path>
</symbol>
<symbol id="icon-soundcloud" viewBox="0 0 32 32">
<title>soundcloud</title>
<path d="M1.567 16.3c-0.068 0-0.125 0.061-0.135 0.133l-0.311 2.872 0.311 2.807c0.009 0.077 0.067 0.131 0.135 0.131 0.067 0 0.12-0.053 0.132-0.131l0.34-2.807-0.36-2.872c0-0.076-0.060-0.133-0.12-0.133zM0.36 17.404c-0.080 0-0.121 0.049-0.139 0.125l-0.221 1.776 0.22 1.744c0 0.073 0.060 0.125 0.12 0.125s0.119-0.060 0.139-0.139l0.28-1.759-0.28-1.779c0-0.081-0.059-0.12-0.12-0.12zM2.799 15.74c-0.081 0-0.16 0.060-0.16 0.139l-0.28 3.417 0.3 3.277c0 0.080 0.060 0.16 0.159 0.16 0.081 0 0.14-0.081 0.161-0.16l0.339-3.299-0.339-3.397c-0.021-0.080-0.081-0.16-0.161-0.16zM4.077 15.599c-0.1 0-0.18 0.080-0.2 0.18l-0.257 3.52 0.28 3.392c0.021 0.103 0.1 0.184 0.199 0.184 0.1 0 0.18-0.081 0.2-0.2l0.32-3.376-0.32-3.497c0-0.1-0.080-0.18-0.18-0.18l-0.041-0.023zM5.617 16.079c-0.007-0.12-0.1-0.199-0.212-0.199-0.12 0-0.211 0.080-0.219 0.199l-0.289 3.24 0.267 3.417c0 0.12 0.1 0.209 0.212 0.209 0.099 0 0.197-0.091 0.197-0.211l0.303-3.417-0.303-3.259 0.044 0.020zM6.696 13.8c-0.135 0-0.24 0.12-0.24 0.241l-0.28 5.276 0.249 3.417c0 0.12 0.107 0.219 0.24 0.219 0.125 0 0.232-0.12 0.24-0.24l0.279-3.417-0.279-5.296c-0.011-0.139-0.117-0.24-0.24-0.24zM7.944 12.541c-0.14 0-0.26 0.12-0.271 0.259l-0.24 6.496 0.22 3.397c0 0.16 0.12 0.279 0.26 0.279 0.139 0 0.259-0.119 0.28-0.279l0.257-3.397-0.256-6.475c-0.021-0.16-0.14-0.28-0.28-0.28zM9.233 11.943c-0.161 0-0.281 0.119-0.3 0.279l-0.22 7.033 0.22 3.36c0.019 0.159 0.139 0.3 0.3 0.3 0.159 0 0.3-0.14 0.3-0.3l0.26-3.36-0.261-7.033c0-0.16-0.14-0.3-0.3-0.3zM10.892 11.981c0-0.18-0.14-0.32-0.32-0.32-0.159 0-0.32 0.14-0.32 0.32l-0.199 7.255 0.199 3.337c0.021 0.18 0.161 0.32 0.341 0.32s0.32-0.14 0.32-0.32l0.219-3.337-0.219-7.275-0.021 0.020zM11.891 11.803c-0.18 0-0.34 0.159-0.34 0.339l-0.2 7.096 0.2 3.297c0 0.2 0.16 0.34 0.34 0.34s0.34-0.16 0.34-0.36l0.2-3.299-0.22-7.076c0-0.197-0.16-0.36-0.361-0.36zM13.189 12.001c-0.219 0-0.379 0.18-0.379 0.38l-0.137 6.857 0.18 3.299c0 0.199 0.159 0.369 0.379 0.369 0.199 0 0.361-0.16 0.379-0.38l0.161-3.257-0.18-6.816c-0.016-0.219-0.18-0.38-0.38-0.38zM14.791 10.813c-0.060-0.039-0.14-0.059-0.22-0.059s-0.159 0.020-0.22 0.059c-0.12 0.072-0.199 0.2-0.199 0.34v0.081l-0.139 8.064 0.153 3.265v0.011c0.011 0.080 0.040 0.18 0.099 0.24 0.077 0.081 0.189 0.139 0.312 0.139 0.107 0 0.211-0.059 0.279-0.12 0.077-0.080 0.121-0.18 0.121-0.3l0.020-0.32 0.156-2.937-0.18-8.115c0-0.139-0.081-0.257-0.18-0.319l-0.003-0.029zM16.132 10.084c-0.060-0.060-0.12-0.081-0.2-0.081-0.099 0-0.199 0.021-0.279 0.081-0.1 0.081-0.159 0.2-0.159 0.32v0.039l-0.183 8.812 0.101 1.62 0.081 1.58c0 0.219 0.197 0.419 0.437 0.419 0.241 0 0.44-0.2 0.44-0.439l0.2-3.219-0.2-8.849c0-0.16-0.099-0.295-0.22-0.369zM28.064 15.033c-0.54 0-1.060 0.115-1.519 0.309-0.32-3.539-3.28-6.315-6.917-6.315-0.879 0-1.74 0.18-2.519 0.479-0.3 0.12-0.36 0.24-0.38 0.479v12.491c0.021 0.24 0.2 0.44 0.44 0.46h10.913c2.159 0.021 3.917-1.717 3.917-3.896s-1.759-3.936-3.917-3.936z"></path>
</symbol>
<symbol id="icon-mailchimp" viewBox="0 0 32 32">
<title>mailchimp</title>
<path d="M14.701 2.472l0.432 0.14-0.349-1.267-0.204 0.629 0.12 0.496zM15.409 3.793c0.137-0.103 0.3-0.223 0.484-0.353h0.023l-1.48-0.448 0.96 0.813 0.013-0.013zM14.32 4.747l-0.141 0.123 0.157-0.107-0.016-0.013zM14.836 4.32l-2.32-1.92 0.12 0.861 1.684 1.485c0.067-0.053 0.129-0.115 0.196-0.165l0.32-0.26zM16.632 2.94l-0.712-0.596 0.26 0.9c0.14-0.1 0.293-0.2 0.453-0.304zM7.256 18.915c0.52 0.003 0.9 0.256 1.080 0.517 0.16 0.24 0.1 0.381 0.18 0.449 0.020 0.017 0.040 0.027 0.060 0.027s0.040-0.003 0.040-0.009c0.1-0.040 0.14-0.193 0.16-0.3 0.020-0.257-0.12-0.547-0.3-0.751-0.347-0.371-0.833-0.58-1.34-0.571h-0.020c-0.26 0-0.48 0.045-0.56 0.069-0.040 0.013-0.12 0.029-0.18 0.049-1.020 0.4-1.48 1.4-1.26 2.4 0.044 0.253 0.155 0.493 0.32 0.691 0.1 0.104 0.2 0.151 0.26 0.151 0.080 0 0.12-0.067 0.060-0.18-0.020-0.057-0.16-0.297-0.18-0.733-0.016-0.443 0.085-0.907 0.373-1.259 0.211-0.261 0.471-0.376 0.5-0.389l0.007 0.008 0.115-0.060 0.053-0.023c0.129-0.040 0.056-0.024 0.189-0.048h0.040c0.117-0.027 0.24-0.040 0.36-0.040h0.043zM18.616 15.457c0.351 0.008 0.696 0.083 1.020 0.22 0.221 0.080 0.4 0.16 0.48 0.16 0.040 0 0.060-0.021 0.060-0.021 0.040-0.032 0.020-0.107-0.060-0.205-0.18-0.26-0.52-0.488-0.84-0.6-0.231-0.085-0.473-0.125-0.715-0.125l0.036-0.048c-0.5 0-1 0.18-1.4 0.5-0.301 0.24-0.42 0.5-0.301 0.52h0.023c0.099 0 0.259-0.060 0.48-0.14 0.48-0.18 0.859-0.26 1.2-0.26h0.020zM23.109 14.429c0.355-0.032 0.711 0.031 1.031 0.187-0.020-0.88-0.533-1.869-0.92-1.733-0.227 0.080-0.267 0.48-0.259 0.72 0.013 0.297 0.053 0.56 0.149 0.84v-0.013z"></path>
<path d="M7.929 20.168c-0.059-0.040-0.101-0.103-0.12-0.173-0.027-0.131-0.013-0.203 0.1-0.283 0.087-0.060 0.157-0.088 0.157-0.124 0-0.032-0.073-0.073-0.173-0.073l0.023-0.057c-0.12 0.004-0.236 0.053-0.32 0.141-0.16 0.179-0.22 0.539 0.040 0.84 0.299 0.32 0.76 0.4 0.819 0.8 0.013 0.067 0.019 0.133 0.013 0.2 0 0.060-0.023 0.16-0.023 0.18-0.080 0.34-0.381 0.68-0.875 0.68h-0.189c-0.064-0.020-0.111-0.020-0.151-0.020-0.027 0-0.048 0-0.056 0.021-0.045 0.060 0.204 0.36 0.664 0.36h0.027c0.68-0.021 1.24-0.72 1.107-1.48-0.12-0.671-0.791-0.813-1.040-1.011zM19.912 16.568h0.021c0.069 0 0.109-0.013 0.129-0.040 0.053-0.089-0.301-0.376-0.819-0.376l-0.071 0.027c-0.080 0-0.16 0-0.24 0.021l-0.22 0.060c-0.040 0-0.060 0.020-0.080 0.020-0.16 0.060-0.301 0.14-0.42 0.26-0.139 0.16-0.2 0.3-0.139 0.32h0.019c0.061 0 0.14-0.040 0.28-0.093 0.423-0.183 0.884-0.253 1.341-0.211 0.077 0.004 0.137 0.013 0.197 0.013zM23.797 15.736c-0.040 0.26 0.080 0.48 0.259 0.52 0.020 0 0.040 0.020 0.040 0.020 0.18 0 0.32-0.173 0.36-0.407 0.040-0.253-0.080-0.483-0.28-0.511-0.013-0.005-0.024-0.005-0.035-0.005l0.035-0.040c-0.18 0-0.34 0.181-0.379 0.421zM22.427 16.68c0.096 0.056 0.204 0.085 0.315 0.085 0.143 0 0.267-0.060 0.327-0.167 0.107-0.187-0.021-0.447-0.273-0.587-0.101-0.056-0.213-0.085-0.312-0.085l-0.009 0.013c-0.139 0-0.259 0.059-0.32 0.16-0.099 0.18 0.024 0.46 0.276 0.58z"></path>
<path d="M31.173 20.836h0.020c-0.227-0.472-0.656-0.811-1.167-0.92-0.177-0.804-0.42-1.2-0.44-1.259 0.093-0.104 0.18-0.211 0.2-0.235 0.747-0.92 0.259-2.26-1.013-2.581-0.716-0.68-1.364-1-1.896-1.28-0.511-0.24-0.307-0.139-0.784-0.36-0.128-0.619-0.169-2.059-0.373-3.080-0.179-0.899-0.547-1.56-1.111-2-0.227-0.48-0.54-0.979-0.924-1.339 1.776-2.72 2.24-5.4 0.94-6.8-0.572-0.681-1.433-0.983-2.461-0.983-1.453 0-3.232 0.591-5.032 1.68l-1.189-0.96c-5.005-3.94-19.163 13.48-14.165 17.287l1.291 0.987c-0.809 2.251 0.317 4.939 2.667 5.8 0.499 0.192 1.080 0.283 1.659 0.251 0 0 3.78 6.953 11.78 6.956 9.24 0 11.6-9.053 11.64-9.133 0 0 0.739-1.109 0.36-2.031zM2.151 16.853h0.009c-1.013-1.713 0.753-5.229 2.009-7.227 3.1-4.941 8.267-8.837 10.613-8.28l0.647-0.248 1.764 1.491c1.213-0.731 2.756-1.471 4.2-1.617-0.88 0.195-1.949 0.653-3.22 1.427-0.027 0.020-3 2.040-4.813 3.84-0.991 0.98-4.96 5.74-4.96 5.74 0.728-1.36 1.205-2.040 2.356-3.48 0.66-0.82 1.36-1.6 2.060-2.34 0.34-0.34 0.66-0.66 1-0.98 0.124-0.104 0.244-0.204 0.363-0.311-0.393 0.272-1.48 1.029-2.083 1.533-3.023 2.497-5.943 6.399-7.043 10.199h0.053c-0.547 0.3-1.080 0.78-1.555 1.431-0.020 0-1.22-0.888-1.4-1.179zM7.099 24c-1.787 0-3.24-1.524-3.24-3.407 0-1.88 1.453-3.409 3.24-3.409 0.467 0 0.907 0.1 1.301 0.287 0 0 0.689 0.349 0.884 1.989 0.2-0.513 0.304-0.933 0.304-0.933 0.231 0.704 0.347 1.447 0.301 2.2 0.193-0.259 0.4-0.739 0.4-0.739 0.352 2.099-1.173 4.013-3.189 4.013zM11.085 11.963l-0.053-0.085c0.131-0.173 0.28-0.34 0.424-0.509 0.589-0.88 1.909-2.56 4.083-3.805-0.229-0.035-0.787 0.040-0.885 0.048 0.556-0.48 1.587-0.796 2.3-0.94-0.205-0.133-0.704-0.168-0.949-0.173-0.075-0.020-0.075-0.020-0.16 0 0.672-0.38 1.917-0.6 3.048-0.4-0.16-0.2-0.48-0.34-0.7-0.4l-0.101-0.040 0.080-0.020c0.68-0.14 1.48 0 2.1 0.26-0.080-0.18-0.26-0.36-0.38-0.48l-0.1-0.080c0.66 0.14 1.28 0.42 1.76 0.74-0.080-0.12-0.24-0.34-0.34-0.46 0.62 0.18 1.32 0.62 1.64 1.26l0.020 0.060c-1.2-0.92-4.68-0.66-8.16 1.6-1.368 0.872-2.413 1.833-3.256 2.831-0.236 0.351-0.368 0.587-0.373 0.595zM29.772 22.581c-0.040 0.080-0.48 2.44-3 4.42-3.16 2.501-7.341 2.243-8.901 0.84-0.84-0.8-1.2-1.917-1.2-1.917s-0.1 0.64-0.12 0.88c-0.64-1.080-0.58-2.4-0.58-2.4s-0.341 0.619-0.48 0.979c-0.461-1.2-0.221-2.42-0.221-2.42l-0.36 0.541s-0.18-1.36 0.24-2.48c0.46-1.2 1.34-2.060 1.52-2.18-0.68-0.2-1.44-0.819-1.44-0.819s0.3 0.021 0.52-0.040c0 0-1.34-0.96-1.58-2.44 0.2 0.24 0.619 0.501 0.619 0.501-0.139-0.38-0.22-1.26-0.080-2.1 0.24-1.62 1.58-2.66 3.1-2.66 1.597 0 2.68 0.34 4.037-0.9 0.28-0.26 0.5-0.48 0.901-0.58 0.040 0 0.16-0.040 0.36-0.040 0.219-0.008 0.433 0.047 0.62 0.16 0.739 0.44 0.9 1.58 0.979 2.4 0.28 3.1 0.16 2.54 1.42 3.18 0.597 0.3 1.277 0.58 2.037 1.4v0.021c0.64 0 0.96 0.52 0.68 0.88-2.16 2.58-5.18 3.819-8.539 3.92l-0.44 0.020c-1.36 0.040-1.8 1.8-0.94 2.84 0.537 0.66 1.579 0.88 2.44 0.88 3.68 0.080 7.379-2.52 8.019-3.96l0.040-0.101c-0.14 0.18-3.72 3.54-8.060 3.42 0 0-0.48-0.020-0.92-0.12-0.581-0.14-1.040-0.4-1.2-1 0.36 0.080 0.82 0.12 1.36 0.12 3.14 0 5.4-1.44 5.18-1.46h-0.040c-0.36 0.080-4.139 1.539-6.52 0.779 0.005-0.067 0.016-0.139 0.033-0.204 0.213-0.712 0.591-0.613 1.2-0.64l-0.133 0.156c2.179-0.075 3.939-0.62 5.257-1.24 1.4-0.673 2.461-1.533 2.861-1.96 0.499 0.84 0.499 1.92 0.499 1.92s0.181-0.072 0.44-0.072c0.82 0 1 0.74 0.38 1.48z"></path>
</symbol>
<symbol id="icon-stackoverflow" viewBox="0 0 32 32">
<title>stackoverflow</title>
<path d="M25.315 29.153v-8.539h2.845v11.385h-25.701v-11.385h2.84v8.539h20.016zM8.148 26.308h14.319v-2.849h-14.319v2.849zM8.493 19.839l13.973 2.919 0.601-2.76-13.971-2.916-0.604 2.757zM10.305 13.097l12.94 6.040 1.204-2.6-12.941-6.040-1.203 2.581v0.019zM13.925 6.717l10.956 9.14 1.812-2.16-10.955-9.137-1.8 2.156-0.013 0.001zM21.001 0l-2.328 1.725 8.54 11.472 2.328-1.725-8.54-11.472z"></path>
</symbol>
<symbol id="icon-trello" viewBox="0 0 32 32">
<title>trello</title>
<path d="M28 0h-24c-2.209 0-4 1.791-4 4v24c0 2.208 1.791 4 4 4h24c2.208 0 4-1.792 4-4v-24c0-2.209-1.792-4-4-4zM13.92 24.24c0 1.060-0.86 1.92-1.92 1.92h-5.92c-1.060 0-1.92-0.861-1.92-1.92v-18.16c0-1.060 0.86-1.92 1.92-1.92h5.92c1.060 0 1.92 0.86 1.92 1.92v18.16zM27.84 16.24c0 1.059-0.86 1.92-1.92 1.92h-5.92c-1.060 0-1.92-0.861-1.92-1.92v-10.16c0-1.060 0.861-1.92 1.92-1.92h5.92c1.060 0 1.92 0.86 1.92 1.92v10.16z"></path>
</symbol>
<symbol id="icon-googleplay" viewBox="0 0 32 32">
<title>googleplay</title>
<path d="M1.627 0c-0.040 0.124-0.080 0.247-0.080 0.411v30.972c0 0.289 0.081 0.453 0.245 0.617l15.22-16.124-15.385-15.876zM18.039 16.944l3.935 4.060-5.617 3.2s-7.14 4.059-11.077 6.319l12.76-13.579zM19.107 15.836l4.221 4.389c0.661-0.368 5.828-3.323 6.565-3.733 0.779-0.451 0.7-1.067 0.039-1.395-0.612-0.34-5.779-3.3-6.56-3.78l-4.265 4.519zM18.036 14.769l3.979-4.225-5.679-3.241s-9.257-5.296-12.337-7.064l14.037 14.531z"></path>
</symbol>
<symbol id="icon-steem" viewBox="0 0 32 32">
<title>steem</title>
<path d="M5.236 3.461c0.352 0.060-0.529 2.371-0.037 5.013 0.424 2.263 5.751 11.033 5.531 14.039-0.171 1.891-4.544 6.32-5.004 6.027-0.503-0.14 1.328-3.148 0.648-5.659-0.787-2.921-5.476-10.48-5.471-13.817 0-2.443 4.015-5.76 4.333-5.603zM15.253 0.007c0.448 0.077-0.675 3.028-0.045 6.388 0.54 2.893 7.335 14.073 7.056 17.909-0.221 2.412-5.797 8.057-6.385 7.68-0.639-0.175 1.695-4.011 0.829-7.208-1.007-3.728-6.984-13.368-6.98-17.624 0-3.117 5.123-7.345 5.525-7.145zM25.592 3.461c0.36 0.060-0.524 2.371-0.031 5.015 0.424 2.263 5.751 11.033 5.531 14.039-0.167 1.891-4.544 6.32-5.005 6.027-0.503-0.14 1.328-3.148 0.651-5.659-0.792-2.923-5.48-10.481-5.473-13.817 0-2.443 4.019-5.76 4.331-5.603h-0.003z"></path>
</symbol>
<symbol id="icon-patreon" viewBox="0 0 32 32">
<title>patreon</title>
<path d="M20.515 0.699c-6.352 0-11.52 5.168-11.52 11.52 0 6.333 5.168 11.484 11.52 11.484 6.333 0 11.485-5.152 11.485-11.484 0-6.352-5.152-11.52-11.485-11.52zM0.004 31.383h5.627v-30.684h-5.627z"></path>
</symbol>
<symbol id="icon-paypal" viewBox="0 0 32 32">
<title>paypal</title>
<path d="M9.211 32h-4.139c-0.885 0-1.448-0.705-1.248-1.573l0.199-0.899h2.761c0.888 0 1.781-0.711 1.976-1.576l1.419-6.123c0.2-0.864 1.088-1.573 1.973-1.573h1.177c5.052 0 8.979-1.039 11.787-3.12s4.213-4.8 4.213-8.18c0-1.5-0.26-2.74-0.784-3.719 0-0.021-0.021-0.041-0.021-0.061l0.18 0.1c1 0.62 1.76 1.419 2.281 2.419 0.539 1 0.797 2.24 0.797 3.721 0 3.38-1.399 6.099-4.219 8.18-2.8 2.060-6.74 3.099-11.779 3.099h-1.2c-0.88 0-1.779 0.7-1.979 1.581l-1.42 6.14c-0.199 0.86-1.080 1.56-1.96 1.56l-0.016 0.024zM5.641 28.407h-4.14c-0.884 0-1.445-0.705-1.248-1.573l5.831-25.257c0.201-0.871 1.087-1.576 1.975-1.576h8.62c1.86 0 3.479 0.131 4.864 0.385 1.38 0.252 2.56 0.692 3.579 1.32 0.981 0.62 1.763 1.429 2.263 2.424 0.519 0.997 0.779 2.24 0.779 3.729 0 3.38-1.401 6.099-4.219 8.159-2.8 2.081-6.741 3.101-11.781 3.101h-1.177c-0.88 0-1.771 0.699-1.971 1.559l-1.415 6.119c-0.199 0.861-1.089 1.563-1.98 1.563l0.021 0.048zM15.569 5.248h-1.352c-0.888 0-1.776 0.705-1.973 1.571l-1.24 5.36c-0.2 0.864 0.36 1.572 1.24 1.572h1.021c2.219 0 3.96-0.457 5.2-1.361 1.239-0.915 1.86-2.205 1.86-3.883 0-1.107-0.401-1.927-1.2-2.453-0.8-0.539-2-0.807-3.581-0.807l0.025 0.001z"></path>
</symbol>
<symbol id="icon-bitcoin" viewBox="0 0 32 32">
<title>bitcoin</title>
<path d="M31.517 19.872c-2.136 8.573-10.817 13.787-19.389 11.648-8.568-2.12-13.787-10.82-11.645-19.38 2.133-8.58 10.817-13.797 19.384-11.663 8.573 2.14 13.789 10.82 11.651 19.397v-0.003zM23.051 13.721c0.32-2.12-1.299-3.267-3.52-4.040l0.72-2.871-1.753-0.44-0.7 2.809c-0.46-0.116-0.94-0.223-1.419-0.333l0.701-2.836-1.76-0.44-0.72 2.887c-0.38-0.089-0.753-0.176-1.12-0.267l-2.42-0.6-0.467 1.876s1.3 0.3 1.273 0.315c0.713 0.181 0.84 0.648 0.82 1.021l-1.969 7.893c-0.1 0.221-0.32 0.541-0.819 0.419 0.020 0.027-1.28-0.32-1.28-0.32l-0.88 2.013 2.28 0.568 1.24 0.323-0.72 2.92 1.76 0.436 0.72-2.893c0.48 0.133 0.94 0.253 1.4 0.364l-0.68 2.872 1.76 0.44 0.727-2.92c2.987 0.569 5.24 0.343 6.187-2.365 0.76-2.183-0.040-3.44-1.623-4.261 1.139-0.257 2-1.013 2.24-2.573h0.013zM19.037 19.348c-0.539 2.187-4.209 1-5.4 0.707l0.96-3.867c1.195 0.307 5.009 0.893 4.44 3.16zM19.584 13.695c-0.493 1.987-3.549 0.98-4.54 0.733l0.872-3.52c0.992 0.24 4.183 0.699 3.667 2.779v0.008z"></path>
</symbol>
<symbol id="icon-kickstarter" viewBox="0 0 32 32">
<title>kickstarter</title>
<path d="M12.805 10.907l5.867-8.507c1.112-1.6 2.541-2.4 4.303-2.4 1.429 0 2.669 0.508 3.719 1.525 1.044 1.020 1.568 2.233 1.568 3.651 0 1.045-0.276 1.972-0.832 2.772l-5.289 7.692 6.471 8.204c0.645 0.816 0.969 1.773 0.969 2.867 0 1.448-0.508 2.691-1.527 3.731-1.016 1.039-2.248 1.559-3.695 1.559-1.585 0-2.796-0.516-3.628-1.547l-7.924-9.889v5.452c0 1.557-0.269 2.765-0.809 3.629-0.983 1.569-2.404 2.355-4.284 2.355-1.709 0-3.035-0.581-3.972-1.732-0.88-1.065-1.32-2.475-1.32-4.229v-20.219c0-1.66 0.448-3.032 1.339-4.111 0.931-1.139 2.224-1.709 3.875-1.709 1.572 0 2.88 0.571 3.928 1.709 0.584 0.633 0.953 1.271 1.108 1.92 0.093 0.4 0.14 1.144 0.14 2.24v5.037h-0.005z"></path>
</symbol>
<symbol id="icon-googledrive" viewBox="0 0 32 32">
<title>googledrive</title>
<path d="M5.911 29.861l5.333-9.239h20.756l-5.333 9.239h-20.756zM10.665 20.623l-5.331 9.239-5.335-9.239 10.38-17.983 5.332 9.241-5.047 8.741zM31.711 20.123h-10.665l-10.38-17.983h10.669l10.376 17.981z"></path>
</symbol>
<symbol id="icon-dropbox" viewBox="0 0 32 32">
<title>dropbox</title>
<path d="M8 2.409l-8 5.096 8 5.096 8.001-5.096-8.001-5.096z"></path>
<path d="M24 2.409l-8 5.096 8 5.096 8-5.096-8-5.096zM0 17.699l8 5.096 8.001-5.096-8.001-5.096-8 5.096z"></path>
<path d="M24 12.603l-8 5.096 8 5.096 8-5.096-8-5.096zM8 24.495l8.001 5.096 8-5.096-8-5.096-8.001 5.096z"></path>
</symbol>
<symbol id="icon-discourse" viewBox="0 0 32 32">
<title>discourse</title>
<path d="M16.137 0c8.751 0 15.863 7.313 15.863 15.996 0 8.68-7.107 15.987-15.867 15.987l-16.133 0.017v-16.28c0-8.68 7.376-15.72 16.137-15.72zM16.292 6.084c-3.457-0.004-6.661 1.803-8.449 4.76-1.773 2.944-1.849 6.609-0.197 9.627l-1.779 5.676 6.392-1.432c3.66 1.633 7.953 0.901 10.848-1.853 2.893-2.739 3.813-6.971 2.316-10.663-1.513-3.704-5.12-6.12-9.12-6.113h-0.011z"></path>
</symbol>
<symbol id="icon-docker" viewBox="0 0 32 32">
<title>docker</title>
<path d="M6.427 23.033c-0.912 0-1.739-0.747-1.739-1.653s0.747-1.657 1.74-1.657c0.997 0 1.747 0.747 1.747 1.656s-0.829 1.653-1.74 1.653zM27.776 14.016c-0.18-1.323-1-2.4-2.080-3.227l-0.42-0.333-0.339 0.413c-0.659 0.747-0.92 2.071-0.84 3.060 0.080 0.749 0.32 1.493 0.739 2.072-0.339 0.173-0.757 0.333-1.080 0.503-0.76 0.249-1.499 0.333-2.24 0.333h-21.387l-0.080 0.493c-0.16 1.576 0.080 3.227 0.749 4.72l0.325 0.58v0.080c2 3.311 5.56 4.8 9.437 4.8 7.459 0 13.576-3.227 16.476-10.177 1.9 0.083 3.819-0.413 4.72-2.235l0.24-0.413-0.4-0.249c-1.080-0.659-2.56-0.747-3.8-0.413l-0.024 0.003zM17.099 12.693h-3.237v3.227h3.24v-3.229l-0.003 0.004zM17.099 8.636h-3.237v3.227h3.24v-3.223l-0.003-0.004zM17.099 4.497h-3.237v3.227h3.24v-3.227h-0.003zM21.059 12.693h-3.219v3.227h3.227v-3.229l-0.009 0.004zM9.061 12.693h-3.217v3.227h3.229v-3.229l-0.013 0.004zM13.101 12.693h-3.2v3.227h3.219v-3.229l-0.020 0.004zM5.061 12.693h-3.195v3.227h3.237v-3.229l-0.040 0.004zM13.101 8.636h-3.2v3.227h3.219v-3.223l-0.020-0.004zM9.041 8.636h-3.192v3.227h3.217v-3.223l-0.021-0.004z"></path>
</symbol>
<symbol id="icon-github" viewBox="0 0 32 32">
<title>github</title>
<path d="M16 0.396c-8.84 0-16 7.164-16 16 0 7.071 4.584 13.067 10.94 15.18 0.8 0.151 1.093-0.344 1.093-0.769 0-0.38-0.013-1.387-0.020-2.72-4.451 0.965-5.389-2.147-5.389-2.147-0.728-1.847-1.78-2.34-1.78-2.34-1.449-0.992 0.112-0.972 0.112-0.972 1.607 0.112 2.451 1.648 2.451 1.648 1.427 2.447 3.745 1.74 4.66 1.331 0.144-1.035 0.556-1.74 1.013-2.14-3.553-0.4-7.288-1.776-7.288-7.907 0-1.747 0.62-3.173 1.647-4.293-0.18-0.404-0.72-2.031 0.14-4.235 0 0 1.34-0.429 4.4 1.64 1.28-0.356 2.64-0.532 4-0.54 1.36 0.008 2.72 0.184 4 0.54 3.040-2.069 4.38-1.64 4.38-1.64 0.86 2.204 0.32 3.831 0.16 4.235 1.020 1.12 1.64 2.547 1.64 4.293 0 6.147-3.74 7.5-7.3 7.893 0.56 0.48 1.080 1.461 1.080 2.96 0 2.141-0.020 3.861-0.020 4.381 0 0.42 0.28 0.92 1.1 0.76 6.401-2.099 10.981-8.099 10.981-15.159 0-8.836-7.164-16-16-16z"></path>
</symbol>
<symbol id="icon-git" viewBox="0 0 32 32">
<title>git</title>
<path d="M31.395 14.573l-13.972-13.971c-0.805-0.804-2.109-0.804-2.917 0l-2.895 2.9 3.68 3.68c0.86-0.287 1.839-0.093 2.519 0.588 0.688 0.687 0.877 1.677 0.584 2.533l3.544 3.547c0.86-0.297 1.849-0.104 2.533 0.58 0.961 0.96 0.961 2.512 0 3.472-0.959 0.959-2.508 0.959-3.467 0-0.719-0.721-0.899-1.783-0.539-2.661l-3.319-3.301v8.7c0.235 0.115 0.456 0.271 0.651 0.464 0.951 0.961 0.951 2.511 0 3.467-0.959 0.961-2.519 0.961-3.479 0-0.959-0.959-0.959-2.505 0-3.464 0.243-0.24 0.516-0.421 0.807-0.541v-8.785c-0.289-0.121-0.565-0.296-0.8-0.535-0.727-0.727-0.901-1.789-0.528-2.679l-3.616-3.633-9.581 9.575c-0.8 0.807-0.8 2.112 0 2.919l13.973 13.969c0.805 0.805 2.109 0.805 2.915 0l13.907-13.907c0.807-0.804 0.807-2.109 0-2.916z"></path>
</symbol>
<symbol id="icon-gitlab" viewBox="0 0 32 32">
<title>gitlab</title>
<path d="M31.94 18.116l-1.789-5.513-3.552-10.919c-0.18-0.564-0.973-0.564-1.156 0l-3.552 10.916h-11.781l-3.551-10.916c-0.181-0.564-0.979-0.564-1.159-0.004l-3.552 10.919-1.789 5.517c-0.161 0.5 0.019 1.052 0.441 1.364l15.5 11.259 15.5-11.257c0.424-0.313 0.604-0.863 0.44-1.365z"></path>
</symbol>
<symbol id="icon-gnusocial" viewBox="0 0 32 32">
<title>gnusocial</title>
<path d="M5.623 0c-2.324 0-4.209 1.884-4.209 4.208v16.819c0 2.325 1.885 4.211 4.209 4.211h12.489c-0.023 4.76-6.437 6.763-6.437 6.763s10.851-0.051 12.407-6.763h2.293c2.325 0 4.209-1.885 4.209-4.209v-16.819c0-2.325-1.885-4.209-4.208-4.209h-20.752zM11.659 3.373c0.097-0.017 0.176-0.004 0.232 0.045 0.447 0.4-0.741 0.791-0.645 2.751 0.043 0.861-0.213 1.528 1.435 1.528 1.101 0 0.644-0.979 2.031-0.979 0.875 0 1.147 0.58 1.245 1.023 0.096-0.44 0.365-1.024 1.24-1.024 1.387 0 0.933 0.977 2.033 0.977 1.649 0 1.392-0.667 1.435-1.528 0.096-1.96-1.093-2.352-0.645-2.751 0.056-0.049 0.133-0.056 0.229-0.027 0.667 0.191 2.143 2.077 2.184 2.873 0.051 0.947 0.053 2.433-1.353 3.209 1.587 1.556 1.803 3.627 1.803 3.627l-2.727-0.045s-0.619-2.824-3.92-2.68c-3.299 0.144-3.728 0.717-3.728 4.208 0 3.489 1.529 4.689 3.873 4.78 3.68 0.144 3.347-1.911 3.347-1.911l-1.72 0.096-0.957-2.583h5.88c0 2.821-1.196 7.219-6.789 6.933-5.595-0.288-6.837-4.687-6.885-7.653-0.024-1.633 0.251-3.469 1.6-4.765-1.403-0.773-1.377-2.267-1.377-3.219 0-1.173 1.507-2.779 2.183-2.893z"></path>
</symbol>
<symbol id="icon-diaspora" viewBox="0 0 32 32">
<title>diaspora</title>
<path d="M20.347 29.195l-3.109-4.341c-0.829-1.16-1.503-2.063-1.539-2.063s-1.341 1.752-3.088 4.151c-1.664 2.285-3.040 4.152-3.060 4.152-0.044 0-5.997-4.192-6.013-4.236-0.008-0.021 1.34-1.997 2.989-4.391 1.653-2.393 3.005-4.387 3.005-4.435 0-0.073-0.544-0.257-4.743-1.66l-4.789-1.599c-0.040-0.024 0.208-0.853 1.057-3.533 0.613-1.928 1.125-3.52 1.14-3.54 0.019-0.021 2.28 0.699 5.029 1.607 2.751 0.907 5.020 1.645 5.051 1.645 0.029 0 0.061-0.040 0.071-0.093 0.013-0.040 0.040-2.381 0.053-5.2 0.027-2.8 0.053-5.12 0.067-5.16 0.027-0.040 0.8-0.040 3.64-0.040 1.979 0 3.617 0.020 3.644 0.040 0.033 0.021 0.087 1.581 0.181 5.040 0.147 5.7 0.147 5.78 0.24 5.78 0.033 0 2.213-0.72 4.84-1.627 2.631-0.88 4.789-1.6 4.807-1.581 0.040 0.059 2.2 7.080 2.18 7.1-0.023 0.021-2.223 0.78-4.88 1.68-3.68 1.24-4.863 1.66-4.863 1.72-0.019 0.040 1.24 1.94 2.861 4.28 1.579 2.32 2.857 4.22 2.857 4.24-0.020 0.061-5.92 4.403-5.977 4.403-0.020 0-0.78-1.021-1.66-2.26l0.007-0.089z"></path>
</symbol>
<symbol id="icon-mastodon" viewBox="0 0 32 32">
<title>mastodon</title>
<path d="M16.016 0c-4.239 0-8.303 1.684-11.3 4.681-6.263 6.223-6.292 16.343-0.069 22.605 6.224 6.26 16.343 6.289 22.604 0.065 0.021-0.021 0.044-0.041 0.068-0.065 6.245-6.243 6.245-16.364 0-22.605-2.999-2.997-7.064-4.681-11.303-4.681zM16.016 8.951h3.421c-0.609 0.429-0.839 1.632-0.864 2.359v6.657c0 1.419-1.14 2.56-2.557 2.56-1.419 0-2.559-1.14-2.559-2.56v-6.457c-0.001-1.419 1.139-2.559 2.559-2.559zM16 10.613c-0.493 0-0.896 0.4-0.896 0.896 0 0.493 0.401 0.896 0.896 0.896s0.895-0.401 0.895-0.896-0.397-0.896-0.895-0.896zM7.081 10.867c1.417 0 2.56 1.139 2.56 2.557v6.589c0.028 0.732 0.255 1.932 0.864 2.36h-3.424c-1.417 0-2.557-1.14-2.557-2.555v-6.393c0-1.421 1.14-2.559 2.557-2.559zM24.953 10.867c1.417 0 2.557 1.139 2.557 2.557v6.393c0 1.419-1.14 2.557-2.557 2.557h-3.424c0.609-0.429 0.841-1.631 0.867-2.361v-6.589c0-1.42 1.137-2.557 2.557-2.557zM7.068 12.531c-0.497 0-0.896 0.4-0.896 0.88 0 0.479 0.399 0.887 0.88 0.887 0.479 0 0.887-0.4 0.887-0.892 0-0.495-0.4-0.897-0.893-0.897l0.023 0.023zM24.969 12.531c-0.495 0-0.896 0.4-0.896 0.88 0 0.479 0.399 0.887 0.896 0.887 0.492 0 0.893-0.4 0.893-0.892 0-0.495-0.399-0.897-0.893-0.897v0.023zM16 13.811c-0.493 0-0.896 0.4-0.896 0.879s0.401 0.9 0.896 0.9 0.895-0.4 0.895-0.9-0.397-0.899-0.895-0.899v0.020zM7.065 15.709c-0.495 0-0.893 0.4-0.893 0.9s0.399 0.899 0.88 0.899c0.479 0 0.887-0.399 0.887-0.899s-0.4-0.9-0.893-0.9h0.020zM24.969 15.709c-0.495 0-0.896 0.4-0.896 0.9s0.399 0.899 0.896 0.899c0.492 0 0.893-0.399 0.893-0.899-0.001-0.5-0.399-0.9-0.893-0.9zM16 16.989c-0.493 0-0.896 0.399-0.896 0.899s0.401 0.899 0.896 0.899 0.895-0.399 0.895-0.899-0.397-0.899-0.895-0.899zM7.065 18.909c-0.495 0-0.893 0.399-0.893 0.885 0 0.489 0.399 0.901 0.88 0.901 0.479 0 0.887-0.401 0.887-0.901s-0.4-0.893-0.893-0.893l0.020 0.008zM24.969 18.909c-0.495 0-0.896 0.399-0.896 0.885 0 0.489 0.399 0.901 0.896 0.901 0.492 0 0.893-0.401 0.893-0.901s-0.399-0.893-0.893-0.893v0.008z"></path>
</symbol>
<symbol id="icon-twitter" viewBox="0 0 32 32">
<title>twitter</title>
<path d="M31.939 6.092c-1.18 0.519-2.44 0.872-3.767 1.033 1.352-0.815 2.392-2.099 2.884-3.631-1.268 0.74-2.673 1.279-4.169 1.579-1.195-1.279-2.897-2.079-4.788-2.079-3.623 0-6.56 2.937-6.56 6.556 0 0.52 0.060 1.020 0.169 1.499-5.453-0.257-10.287-2.876-13.521-6.835-0.569 0.963-0.888 2.081-0.888 3.3 0 2.28 1.16 4.284 2.917 5.461-1.076-0.035-2.088-0.331-2.971-0.821v0.081c0 3.18 2.257 5.832 5.261 6.436-0.551 0.148-1.132 0.228-1.728 0.228-0.419 0-0.82-0.040-1.221-0.115 0.841 2.604 3.26 4.503 6.139 4.556-2.24 1.759-5.079 2.807-8.136 2.807-0.52 0-1.039-0.031-1.56-0.089 2.919 1.859 6.357 2.945 10.076 2.945 12.072 0 18.665-9.995 18.665-18.648 0-0.279 0-0.56-0.020-0.84 1.281-0.919 2.4-2.080 3.28-3.397l-0.063-0.027z"></path>
</symbol>
<symbol id="icon-steam" viewBox="0 0 32 32">
<title>steam</title>
<path d="M15.972 0c-8.401 0-15.291 6.48-15.943 14.716l8.576 3.544c0.727-0.495 1.604-0.787 2.549-0.787 0.084 0 0.167 0.005 0.251 0.008l3.815-5.523v-0.079c0-3.327 2.704-6.032 6.032-6.032 3.325 0 6.032 2.708 6.032 6.036s-2.707 6.033-6.032 6.033h-0.14l-5.435 3.881c0 0.069 0.005 0.14 0.005 0.212 0 2.5-2.020 4.528-4.52 4.528-2.18 0-4.021-1.564-4.441-3.636l-6.14-2.543c1.901 6.716 8.067 11.64 15.391 11.64 8.836 0 15.999-7.164 15.999-16s-7.164-16-15.999-16zM10.053 24.28l-1.964-0.813c0.349 0.724 0.952 1.332 1.752 1.667 1.729 0.719 3.724-0.101 4.443-1.833 0.351-0.84 0.352-1.759 0.007-2.599s-1-1.495-1.836-1.844c-0.832-0.347-1.72-0.332-2.504-0.040l2.031 0.84c1.275 0.533 1.879 2 1.345 3.273-0.529 1.276-1.996 1.88-3.272 1.349h-0.001zM25.273 11.876c0-2.216-1.804-4.020-4.020-4.020-2.22 0-4.020 1.804-4.020 4.020 0 2.22 1.8 4.020 4.020 4.020 2.217 0 4.020-1.8 4.020-4.020zM18.243 11.869c0-1.669 1.351-3.021 3.020-3.021 1.665 0 3.021 1.352 3.021 3.021 0 1.668-1.356 3.020-3.021 3.020-1.671 0-3.020-1.352-3.020-3.020z"></path>
</symbol>
<symbol id="icon-humblebundle" viewBox="0 0 32 32">
<title>humblebundle</title>
<path d="M5.527 31.995c0.16-0.617 0.307-1.2 0.457-1.784 0.923-3.617 1.763-7.253 2.427-10.929 0.327-1.8 0.595-3.613 0.844-5.432 0.189-1.371 0.289-2.752 0.264-4.14-0.013-0.743-0.045-1.488-0.257-2.207-0.093-0.32-0.232-0.631-0.4-0.915-0.22-0.364-0.573-0.504-1-0.491-1.177 0.035-2.177 0.484-3.029 1.28-0.969 0.907-1.603 2.036-2.071 3.26-0.221 0.58-0.379 1.183-0.563 1.773-0.027 0.088-0.035 0.164-0.153 0.163-0.659-0.008-1.319-0.007-1.979-0.008-0.017 0-0.032-0.011-0.048-0.013 0-0.257-0.027-0.513 0.004-0.763 0.461-3.804 2.093-7.023 4.891-9.635 1.047-0.979 2.287-1.657 3.703-1.965 2.073-0.451 3.728 0.344 4.712 2.24 0.5 0.96 0.771 1.995 0.947 3.057 0.28 1.716 0.291 3.448 0.233 5.18-0.019 0.56-0.053 1.12-0.083 1.68-0.003 0.072 0 0.144 0 0.235 0.076 0.004 0.14 0.011 0.205 0.011 1.207 0 2.413-0.003 3.623 0.007 0.165 0 0.213-0.063 0.24-0.213 0.767-4.151 1.823-8.227 3.187-12.221 0.032-0.099 0.067-0.165 0.196-0.165 1.493 0.005 2.987 0.005 4.483 0.005 0.023 0 0.047 0.005 0.093 0.011l-0.257 1.004c-1.008 3.915-1.915 7.848-2.648 11.819-0.384 2.061-0.711 4.133-0.92 6.219-0.115 1.167-0.187 2.336-0.151 3.507 0.021 0.707 0.072 1.416 0.293 2.093 0.085 0.269 0.213 0.533 0.364 0.773 0.223 0.347 0.568 0.488 0.987 0.475 1.547-0.044 2.723-0.787 3.661-1.96 0.943-1.173 1.511-2.533 1.912-3.973 0.037-0.133 0.080-0.269 0.101-0.408 0.019-0.109 0.072-0.139 0.173-0.139 0.623 0.003 1.244 0.005 1.867 0 0.136-0.003 0.16 0.057 0.156 0.173-0.019 1.072-0.209 2.111-0.52 3.129-0.787 2.571-2.076 4.847-3.989 6.747-1.084 1.080-2.349 1.876-3.84 2.275-0.903 0.244-1.807 0.283-2.7-0.037-1.013-0.36-1.701-1.088-2.213-2.005-0.536-0.967-0.817-2.016-1-3.096-0.32-1.875-0.32-3.765-0.229-5.656 0.056-1.187 0.169-2.369 0.257-3.555 0.019-0.253 0.021-0.253-0.232-0.253-1.14 0-2.28 0.003-3.421-0.003-0.139 0-0.204 0.032-0.227 0.183-0.36 2.417-0.849 4.811-1.432 7.183-0.604 2.456-1.299 4.885-2.116 7.28-0.059 0.169-0.139 0.213-0.311 0.213-1.42-0.008-2.84-0.005-4.263-0.005h-0.227z"></path>
</symbol>
<symbol id="icon-youtube" viewBox="0 0 32 32">
<title>youtube</title>
<path d="M31.327 8.273c-0.386-1.353-1.431-2.398-2.756-2.777l-0.028-0.007c-2.493-0.668-12.528-0.668-12.528-0.668s-10.009-0.013-12.528 0.668c-1.353 0.386-2.398 1.431-2.777 2.756l-0.007 0.028c-0.443 2.281-0.696 4.903-0.696 7.585 0 0.054 0 0.109 0 0.163l-0-0.008c-0 0.037-0 0.082-0 0.126 0 2.682 0.253 5.304 0.737 7.845l-0.041-0.26c0.386 1.353 1.431 2.398 2.756 2.777l0.028 0.007c2.491 0.669 12.528 0.669 12.528 0.669s10.008 0 12.528-0.669c1.353-0.386 2.398-1.431 2.777-2.756l0.007-0.028c0.425-2.233 0.668-4.803 0.668-7.429 0-0.099-0-0.198-0.001-0.297l0 0.015c0.001-0.092 0.001-0.201 0.001-0.31 0-2.626-0.243-5.196-0.708-7.687l0.040 0.258zM12.812 20.801v-9.591l8.352 4.803z"></path>
</symbol>
<symbol id="icon-twitch" viewBox="0 0 32 32">
<title>twitch</title>
<path d="M2.785 0l-2.085 5.567v22.259h7.648v4.175h4.176l4.169-4.176h6.26l8.347-8.344v-19.48h-28.515zM5.567 2.78h22.953v15.305l-4.869 4.869h-7.651l-4.169 4.169v-4.169h-6.264v-20.175z"></path>
<path d="M13.22 16.696h2.78v-8.347h-2.78v8.347zM20.867 16.696h2.781v-8.347h-2.781v8.347z"></path>
</symbol>
<symbol id="icon-vimeo" viewBox="0 0 32 32">
<title>vimeo</title>
<path d="M31.969 8.555c-0.14 3.117-2.319 7.391-6.525 12.812-4.357 5.663-8.035 8.493-11.053 8.493-1.879 0-3.437-1.725-4.737-5.175l-2.557-9.485c-0.959-3.445-1.984-5.171-3.083-5.171-0.239 0-1.075 0.504-2.508 1.509l-1.505-1.943c1.58-1.392 3.135-2.779 4.668-4.171 2.105-1.824 3.687-2.78 4.739-2.879 2.489-0.24 4.021 1.467 4.596 5.117 0.62 3.937 1.052 6.385 1.295 7.343 0.719 3.267 1.508 4.899 2.368 4.899 0.669 0 1.675-1.061 3.020-3.18 1.339-2.119 2.053-3.729 2.149-4.837 0.192-1.828-0.527-2.748-2.152-2.748-0.765 0-1.556 0.161-2.369 0.521 1.581-5.157 4.579-7.676 9.016-7.516 3.297 0.080 4.837 2.219 4.657 6.396l-0.017 0.013z"></path>
</symbol>
<symbol id="icon-whatsapp" viewBox="0 0 32 32">
<title>whatsapp</title>
<path d="M23.331 19.176c-0.401-0.2-2.356-1.156-2.72-1.288-0.364-0.135-0.631-0.2-0.897 0.2-0.263 0.393-1.028 1.285-1.259 1.549-0.233 0.26-0.465 0.28-0.861 0.1-0.4-0.2-1.684-0.62-3.204-1.98-1.184-1.060-1.979-2.36-2.213-2.76-0.232-0.4-0.025-0.62 0.173-0.82 0.181-0.18 0.401-0.46 0.601-0.697 0.195-0.241 0.259-0.401 0.396-0.661 0.133-0.28 0.065-0.5-0.033-0.699-0.1-0.2-0.896-2.16-1.229-2.941-0.32-0.779-0.649-0.68-0.896-0.68-0.229-0.020-0.495-0.020-0.761-0.020s-0.697 0.099-1.063 0.479c-0.364 0.4-1.393 1.36-1.393 3.3s1.427 3.82 1.625 4.1c0.199 0.26 2.807 4.26 6.8 5.98 0.952 0.4 1.693 0.64 2.272 0.839 0.952 0.303 1.82 0.26 2.507 0.161 0.765-0.121 2.356-0.961 2.688-1.901 0.34-0.94 0.34-1.72 0.24-1.9-0.099-0.18-0.36-0.28-0.76-0.46zM16.081 29h-0.021c-2.36 0-4.699-0.64-6.74-1.84l-0.48-0.285-5 1.3 1.34-4.86-0.319-0.5c-1.32-2.101-2.021-4.521-2.021-7.013 0-7.26 5.94-13.18 13.256-13.18 3.539 0 6.86 1.38 9.361 3.88 2.5 2.479 3.879 5.8 3.879 9.32-0.005 7.259-5.947 13.18-13.247 13.18zM27.36 4.599c-3.040-2.939-7.040-4.599-11.3-4.599-8.776 0-15.921 7.112-15.925 15.857 0 2.795 0.732 5.52 2.127 7.927l-2.261 8.216 8.447-2.203c2.328 1.257 4.947 1.925 7.613 1.929h0.008c8.78 0 15.928-7.115 15.932-15.861 0-4.235-1.653-8.22-4.66-11.215z"></path>
</symbol>
<symbol id="icon-wordpress" viewBox="0 0 32 32">
<title>wordpress</title>
<path d="M28.625 9.1c1.12 2.049 1.757 4.4 1.757 6.9 0 5.305-2.875 9.941-7.151 12.433l4.393-12.703c0.82-2.053 1.093-3.695 1.093-5.152 0-0.54-0.035-1.040-0.093-1.48zM17.984 9.239c0.863-0.040 1.643-0.14 1.643-0.14 0.776-0.1 0.685-1.24-0.089-1.199 0 0-2.34 0.18-3.84 0.18-1.419 0-3.8-0.2-3.8-0.2-0.78-0.040-0.881 1.14-0.1 1.18 0 0 0.72 0.081 1.5 0.12l2.24 6.14-3.16 9.44-5.239-15.56c0.865-0.040 1.645-0.133 1.645-0.133 0.78-0.1 0.688-1.24-0.087-1.195 0 0-2.328 0.184-3.832 0.184-0.267 0-0.584-0.011-0.92-0.020 2.603-3.836 7.035-6.416 12.055-6.416 3.745 0 7.153 1.429 9.715 3.777-0.061-0.004-0.121-0.012-0.188-0.012-1.413 0-2.416 1.231-2.416 2.552 0 1.187 0.684 2.191 1.413 3.375 0.548 0.96 1.187 2.191 1.187 3.969 0 1.22-0.472 2.659-1.095 4.639l-1.433 4.78-5.2-15.48 0.001 0.019zM16 30.379c-1.412 0-2.775-0.204-4.064-0.583l4.316-12.541 4.42 12.116c0.032 0.071 0.067 0.135 0.104 0.199-1.493 0.524-3.1 0.812-4.776 0.812zM1.615 16c0-2.085 0.448-4.067 1.247-5.853l6.859 18.799c-4.795-2.332-8.104-7.251-8.105-12.945zM16 0c-8.82 0-16 7.18-16 16s7.18 16 16 16 16-7.18 16-16-7.18-16-16-16z"></path>
</symbol>
<symbol id="icon-blogger" viewBox="0 0 32 32">
<title>blogger</title>
<path d="M29.301 32h-26.6c-1.501 0-2.701-1.2-2.701-2.699v-26.6c0-1.501 1.2-2.701 2.7-2.701h26.7c1.4 0 2.6 1.2 2.6 2.7v26.6c0 1.5-1.2 2.7-2.699 2.7zM16 5.3h-4c-3.7 0-6.7 3-6.7 6.7v8c0 3.699 3 6.699 6.7 6.699h8c3.699 0 6.699-3 6.699-6.699v-5.3c0-0.8-0.6-1.4-1.4-1.4h-1.299c-0.699 0-1.301-0.6-1.301-1.301 0-3.701-3-6.701-6.699-6.701zM20.099 21.3h-8.099c-0.7 0-1.3-0.6-1.3-1.3s0.6-1.301 1.3-1.301h8.099c0.701 0 1.303 0.6 1.303 1.301s-0.6 1.301-1.3 1.301zM16.699 10.7c0.703 0 1.301 0.6 1.301 1.3s-0.6 1.3-1.3 1.3h-4.8c-0.7 0-1.301-0.6-1.301-1.3s0.6-1.3 1.3-1.3h4.8z"></path>
</symbol>
<symbol id="icon-gnu" viewBox="0 0 32 32">
<title>gnu</title>
<path d="M6.763 18.576c-0.295 0.016-0.559 0.188-0.692 0.451-0.153 0.281-0.519 0.323-0.689 0.268-0.28-0.093-0.641-0.159-0.992 0.091s-0.728 0.060-0.66-0.396c0.065-0.453 0.229-0.86 0.665-1.107 0.952-0.547 0.289-0.927 0.811-1.479 0.525-0.549 0.409-0.716 0.391-1.465-1.768-0.267-2.771-0.776-3.888-2.175-1.119-1.396-1.553-2.547-1.668-4.299-0.117-1.756-0.015-2.892 0.743-4.348 0.757-1.451 1.557-2.151 2.936-2.877 1.38-0.731 2.735-0.903 3.985-0.881 1.252 0.020 2.085 0.111 2.792 0.516 0.708 0.404 1.355 0.912 1.765 0.913 0.32 0.020 0.636-0.071 0.897-0.256 0.053 1.36-1.171 1.477-2.264 1.507-1.093 0.028-1.765-0.423-2.773-0.256-1.005 0.171-2.656 0.628-3.46 2.027-0.804 1.4-0.832 1.893-0.764 3.068 0.065 1.171 1.075 2.045 1.645 2.056 0.571 0.009 0.697-0.156 1.197-0.48 0.499-0.328 3.045-3.48 3.912-4.187 0.871-0.708 1.728-0.928 2.653-0.94 0.927-0.011 1.161 0.020 1.911 0.328 0.747 0.305 1.205 0.869 1.808 1.213 0.307-0.18 0.5-0.452 0.779-0.66 1.013-0.736 1.536-0.936 2.737-0.82 0.691 0.069 1.559 0.463 2.080 0.915 0.924 0.805 1.688 1.921 2.304 2.772 0.48 0.663 1.047 1.455 1.856 1.703 0.879 0.268 1.543-0.869 1.64-1.505 0.057-0.36 0.129-0.675 0.129-1.068 0-0.396-0.040-0.873-0.153-1.287-0.12-0.409-0.296-0.799-0.523-1.159-0.344-0.555-0.907-1.133-1.488-1.429-0.328-0.167-1.101-0.471-1.588-0.481-0.597-0.013-1.052 0.188-1.603 0.225-0.667 0.045-1.861 0.195-2.381-0.32-0.335-0.328-0.377-0.548-0.432-0.975 0.145 0.123 0.352 0.2 0.535 0.217 0.417 0.035 0.807-0.305 1.145-0.504 0.28-0.164 0.672-0.453 1.037-0.6 0.939-0.38 2.091-0.371 3.080-0.267 0.793 0.080 1.824 0.432 2.52 0.828 0.701 0.395 1.375 1.063 1.867 1.691 0.621 0.792 0.961 1.472 1.185 2.459 0.288 1.26 0.369 3.153 0.020 4.399-0.273 0.979-1.183 2.481-1.956 3.219-0.764 0.729-1.647 1.081-2.648 1.273 0.040 0.199 0.044 0.388 0.095 0.555 0.075 0.237 0.217 0.5 0.507 0.417 0.115-0.033 0.177-0.063 0.328 0.071 0.153 0.133 0.075 0.647-0.355 0.88-0.219 0.115-0.445 0.14-0.793 0.149-0.425 0.016-0.852-0.005-1.271-0.061-0.377-0.063-0.601-0.364-1.020-0.412-0.647-0.073-1.14-0.54-1.66-0.872-0.216-0.139-0.291-0.139-0.415-0.211 0.068 0.205 0.157 0.419 0.201 0.62 0.045 0.195 0.027 0.38 0.049 0.539 0.025 0.159 0.069 0.281 0.093 0.412 0.103 0.091 0.137 0.231 0.311 0.276 0.173 0.047 0.445-0.024 0.624-0.049 0.18-0.024 0.299-0.12 0.437-0.093 0.14 0.027 0.272 0.128 0.389 0.221s0.219 0.107 0.312 0.339c0.093 0.237 0.18 0.716 0.195 1.036 0.012 0.32-0.024 0.607-0.119 0.864-0.093 0.252-0.18 0.364-0.436 0.617s-0.675 0.62-1.092 0.88c0.077 0.112 0.111 0.216 0.231 0.339 0.12 0.125 0.369 0.263 0.479 0.393 0.113 0.131 0.171 0.224 0.171 0.369 0.016 0.175-0.028 0.349-0.124 0.497-0.297 0.399-0.644 0.469-1.071 0.656 0.072 0.445 0.131 0.763 0.027 1.208-0.040 0.183-0.136 0.593-0.36 0.7-0.225 0.107-0.656 0.055-0.931 0.099-0.273 0.041-0.425 0.084-0.639 0.125-0.131 0.188-0.323 0.396-0.388 0.563-0.065 0.169-0.045 0.229 0.008 0.399 0.056 0.172 0.247 0.421 0.3 0.625 0.052 0.2 0.065 0.415 0.015 0.617-0.051 0.2-0.156 0.383-0.307 0.528-0.172 0.18-0.509 0.32-0.679 0.461-0.167 0.148-0.336 0.164-0.289 0.404 0.063 0.331 0.545 0.861 0.893 0.992 0.247 0.073 0.509 0.052 0.743-0.055-0.019 0.279-0.26 0.472-0.42 0.659 0.429-0.125 0.848-0.36 1.139-0.672-0.089 0.271-0.4 0.705-0.86 1.088s-0.457 0.305-0.689 0.459c0.419 0.081 0.808 0.060 1.133 0.003-0.263 0.148-0.555 0.243-0.855 0.276-0.385 0.041-0.624 0.011-0.972-0.073s-0.665-0.401-1.085-0.62c0.040 0.159 0.071 0.347 0.247 0.508 0.181 0.159 0.447 0.243 0.732 0.377-0.363-0.039-0.744-0.049-1.099-0.128-0.265-0.063-0.443-0.123-0.637-0.219-0.192-0.093-0.34-0.235-0.512-0.352 0.081 0.156 0.105 0.341 0.245 0.469 0.139 0.131 0.367 0.18 0.549 0.265-0.191-0.005-0.375 0.039-0.573-0.013-0.213-0.049-0.416-0.145-0.591-0.279-0.213-0.159-0.415-0.333-0.593-0.528-0.176-0.193-0.395-0.443-0.46-0.617-0.064-0.177 0.040-0.3 0.059-0.451-0.12 0.081-0.268 0.125-0.363 0.24-0.093 0.117-0.176 0.221-0.135 0.424 0.040 0.2 0.229 0.451 0.361 0.675-0.395-0.323-0.615-0.448-0.708-0.833-0.085-0.364 0.139-0.693 0.311-0.967 0.085-0.139 0.216-0.265 0.295-0.399-0.18-0.172-0.38-0.32-0.533-0.519-0.151-0.2-0.216-0.469-0.369-0.656-0.156-0.191-0.365-0.309-0.547-0.464 0.159 0.341 0.423 0.763 0.479 1.028 0.059 0.265-0.064 0.429-0.159 0.573-0.093 0.143-0.245 0.177-0.389 0.263-0.147 0.091-0.369 0.021-0.456 0.151s-0.111 0.328-0.028 0.459l0.341 0.531c-0.168-0.096-0.313-0.224-0.436-0.375-0.099-0.128-0.248-0.251-0.265-0.421-0.021-0.175-0.031-0.328 0.084-0.484 0.112-0.156 0.424-0.208 0.563-0.328 0.14-0.12 0.216-0.197 0.208-0.352-0.008-0.156-0.159-0.265-0.289-0.364-0.399-0.3-0.907-0.573-1.245-0.932-0.145-0.14-0.255-0.312-0.319-0.505-0.040-0.14 0.001-0.251 0.095-0.419 0.096-0.175 0.42-0.407 0.461-0.591 0.039-0.188-0.127-0.229-0.273-0.295-0.148-0.065-0.429 0.033-0.567-0.081s0.040-0.355-0.115-0.487-0.508-0.060-0.692-0.2c-0.161-0.136-0.273-0.32-0.32-0.527-0.061-0.188-0.071-0.388-0.028-0.581 0.043-0.151 0.171-0.177 0.249-0.255 0.079-0.076 0.144-0.139 0.040-0.255-0.099-0.117-0.44 0.005-0.635-0.14-0.199-0.151-0.080-0.508-0.217-0.659-0.139-0.145-0.383-0.088-0.515-0.139-0.129-0.047-0.18 0.12-0.259-0.145-0.081-0.265-0.084-1.063-0.191-1.36s-0.317-0.021-0.415-0.315c-0.1-0.295-0.005-0.765-0.049-1.211l-0.2-1.213c-0.695 0.469-1.156 0.617-1.904 0.748-0.063 1.831-0.235 2.909 0.388 4.94 0.62 2.028 1.877 3.227 3.573 4.943-2.24-1.675-3.305-3.039-3.975-4.784-0.668-1.748-0.541-3.209-0.475-4.888zM18.655 17.839c0.172 0.008 0.38 0.052 0.501 0.131 0.121 0.081 0.251 0.143 0.36 0.252 0.275 0.281 0.48 0.617 0.571 1.003 0.059 0.248 0.067 0.563 0.085 0.852-0.083-0.265-0.137-0.544-0.256-0.784-0.185-0.38-0.501-0.748-0.896-0.917-0.088-0.041-0.188-0.055-0.285-0.036 0.031 0.055 0.084 0.101 0.087 0.177 0 0.079-0.016 0.232-0.149 0.297-0.213 0.104-0.452 0.028-0.619-0.115-0.169-0.156-0.221-0.401-0.136-0.612 0.105-0.259 0.5-0.259 0.737-0.248zM16.493 17.476c0.023-0.443 0.18-0.812 0.577-1.028 0.249-0.143 0.523-0.24 0.805-0.287 0.276-0.035 0.951-0.011 1.357 0.175 0.309 0.14 0.521 0.361 0.796 0.525 0.273 0.161 0.468 0.268 0.728 0.451 0.4 0.281 0.633 0.585 0.909 0.768 0.135 0.088 0.32 0.076 0.499 0.131-0.139 0.039-0.319 0.085-0.467 0.039-0.212-0.085-0.411-0.203-0.584-0.352-0.205-0.183-0.427-0.344-0.663-0.479-0.165-0.096-0.439-0.211-0.621-0.328-0.18-0.12-0.495-0.377-0.669-0.465-0.276-0.115-0.571-0.172-0.867-0.167-0.341 0.011-0.835 0.067-1.096 0.304-0.263 0.24-0.361 0.448-0.303 0.755 0.097-0.112 0.164-0.255 0.26-0.339 0.205-0.177 0.439-0.185 0.695-0.151 0.287 0.036 0.429 0.2 0.524 0.472-0.063-0.044-0.18-0.145-0.272-0.18-0.192-0.073-0.408-0.052-0.584 0.057-0.239 0.131-0.173 0.32-0.205 0.528-0.017 0.101-0.055 0.177-0.081 0.265-0.089-0.021-0.172-0.065-0.24-0.131 0.001 0.101-0.013 0.188 0.008 0.297 0.019 0.112 0.073 0.245 0.112 0.364-0.168-0.167-0.341-0.32-0.447-0.536-0.115-0.209-0.175-0.449-0.172-0.689zM16.785 14.276c0.121-0.181 0.159-0.46 0.232-0.689-0.028 0.289 0.028 0.604-0.111 0.812-0.14 0.211-0.389 0.172-0.591 0.235 0.157-0.12 0.344-0.175 0.469-0.357zM13.843 18.547c0.159-0.128 0.584-0.027 0.901-0.003l-0.685 0.177c-0.023 0.079-0.013 0.164-0.064 0.232-0.053 0.068-0.152 0.091-0.228 0.139 0.008-0.207-0.083-0.417 0.076-0.545zM16.087 9.677c0.191 0.1 0.428 0.237 0.599 0.24 0.165 0.005 0.211-0.107 0.309-0.175 0.153 0.507 0.333 1.063 0.597 1.523 0.111 0.195 0.181 0.105 0.267 0.299 0.084 0.193 0.12 0.585 0.2 0.835 0.079 0.249 0.183 0.428 0.276 0.644-0.232-0.333-0.535-0.755-0.667-1.031-0.131-0.276-0.047-0.3-0.153-0.561-0.104-0.264-0.317-0.672-0.476-1.008-0.115 0.015-0.253 0.035-0.34 0.008-0.087-0.028-0.072-0.121-0.149-0.179-0.079-0.060-0.211-0.036-0.32-0.133-0.108-0.093-0.133-0.289-0.143-0.461zM15.064 12.177c0.18-0.016 0.399 0.031 0.567 0.023s0.288-0.052 0.433-0.080c-0.028-0.252-0.003-0.716-0.235-0.885-0.153-0.107-0.771-0.027-0.935 0.008-0.372 0.081-0.805 0.303-1.164 0.44 0.344-0.24 0.641-0.461 1.055-0.585 0.251-0.073 0.828-0.172 1.084-0.101 0.119 0.031 0.14 0.081 0.212 0.18 0.244 0.34 0.244 0.633 0.305 1.031 0.063 0.095 0.128 0.159 0.18 0.259 0.051 0.124 0.083 0.253 0.091 0.385-0.064-0.092-0.024-0.207-0.199-0.275-0.18-0.071-0.449-0.007-0.689 0.019 0.175 0.128 0.26 0.248 0.268 0.512 0.008 0.311-0.255 0.535-0.531 0.556-0.38 0.029-0.579-0.055-0.732-0.38-0.068-0.143-0.021-0.315-0.024-0.455-0.461 0.032-0.453 0.017-0.789 0.296 0.185 0.268 0.299 0.42 0.601 0.581 0.167 0.088 0.36 0.177 0.567 0.213 0.209 0.036 0.553 0.071 0.775 0.036 0.193-0.024 0.371-0.109 0.505-0.249 0.164-0.149 0.18-0.365 0.243-0.537-0.005 0.169-0.036 0.336-0.093 0.495-0.187 0.36-0.507 0.469-0.891 0.469-0.367 0-0.821-0.084-1.164-0.225-0.273-0.113-0.727-0.433-0.833-0.712-0.075-0.191-0.016-0.424-0.024-0.636 0.38-0.252 0.472-0.191 0.919-0.264 0.188-0.033 0.319-0.101 0.499-0.117zM12.857 10.472c0.009-0.152 0.028-0.148 0.040-0.223-0.345-0.092-0.481 0.132-0.685 0.548-0.076 0.153 0 0.248-0.083 0.351-0.079 0.101-0.212 0.087-0.343 0.185s-0.261 0.287-0.385 0.389c-0.252 0.208-0.596 0.335-0.889 0.477 0.2-0.148 0.591-0.372 0.717-0.585 0.067-0.115 0.056-0.329 0.16-0.433 0.104-0.1 0.14-0.173 0.273-0.199s0.081-0.181 0.124-0.305c0.043-0.121 0.129-0.211 0.22-0.335s0.208-0.307 0.388-0.376c0.18-0.065 0.463 0.007 0.6-0.031 0.136-0.039 0.057-0.14 0.157-0.2s0.292-0.031 0.427-0.096c0.235-0.112 0.347-0.303 0.489-0.503 0.020 0.435 0.013 0.748-0.143 1.159-0.175 0.461-0.355 0.733-0.855 1.017-0.171 0.096-0.343 0.131-0.487 0.183 0.083-0.115 0.203-0.164 0.251-0.341 0.045-0.181 0.012-0.533 0.023-0.683zM20.936 12.595c-0.236 0.019-0.292-0.016-0.484 0.121l0.309 0.48c-0.008-0.316 0.024-0.38 0.177-0.601h-0.003zM20.316 12.365c0.328-0.139 0.615-0.252 0.973-0.276 0.143-0.011 0.365 0.012 0.511 0.021 0.125-0.183 0.281-0.325 0.341-0.533 0.037-0.139 0.020-0.779-0.051-0.945-0.195-0.481-0.387-0.503-0.66-0.78-0.195-0.199-0.203-0.507-0.263-0.851-0.020-0.125-0.083-0.284-0.112-0.413-0.377-0.061-0.76-0.083-1.143-0.060 0.197-0.191 0.388-0.361 0.445-0.648 0.060-0.305 0.005-0.621-0.151-0.889-0.161-0.255-0.42-0.48-0.659-0.689-0.237-0.207-0.581-0.379-0.805-0.549 0.295-0.103 0.592-0.259 0.88-0.313 0.748-0.144 1.391 0.076 2.112 0.512 0.42 0.253 0.764 0.493 1.203 0.955 0.439 0.459 0.98 1.3 1.405 1.797 0.423 0.5 0.767 0.893 1.137 1.191 0.368 0.301 0.704 0.385 1.056 0.575l0.549 0.584 0.447-0.551 0.713 0.080 0.148-0.801 0.653-0.181-0.105-1.081 0.472-0.336-0.356-0.672 0.36-0.737-0.469-0.84 0.18-0.809-0.543-0.464-0.071-0.861-0.759-0.289-0.303-0.748-0.853-0.009-0.42-0.556-0.575 0.040-0.639-0.071-0.36-0.265-0.528 0.347-0.636-0.331-1.263 0.479 0.824-0.716 0.853-0.136 0.653-0.168 0.884 0.291 0.776-0.196 0.751 0.441 0.795-0.041 0.391 0.7 0.788 0.089 0.427 0.775 0.496 0.273 0.133 0.995 0.444 0.42-0.197 0.871 0.52 0.659-0.484 0.705 0.52 0.443-0.665 0.591 0.675 0.705-0.817 0.267 0.531 0.755-0.668 0.117 0.437 0.829-0.751-0.011 0.38 0.621-0.828-0.099 0.197 0.896-0.624-0.548-0.212 1.085-0.429-0.78-0.233 0.973-0.529-0.716 0.015 1.020-0.585-0.917c0.121 0.521 0.097 1.089 0.439 1.58 1.059-0.143 1.749-0.409 2.561-1.189 0.736-0.711 1.619-2.192 1.859-3.133 0.272-1.069 0.28-3.041 0.012-4.135-0.259-1.049-0.595-1.551-1.195-2.409-0.573-0.607-1.137-1.252-1.865-1.685-1.071-0.64-2.439-0.811-3.656-0.795-0.524 0.001-1.041 0.099-1.531 0.287-0.703 0.255-1.267 0.815-1.983 1.091-0.233 0.089-0.42 0.091-0.605-0.005 0.18 0.36 0.375 0.521 0.825 0.652 0.325 0.095 1.1 0.035 1.636-0.015 0.573-0.052 0.872-0.223 1.652-0.213 0.76 0.013 1.365 0.3 1.696 0.491 0.681 0.389 1.169 0.819 1.595 1.505 0.233 0.376 0.397 0.801 0.511 1.233 0.115 0.432 0.165 0.917 0.173 1.341s-0.025 0.803-0.129 1.184c-0.243 0.892-0.777 1.8-1.876 1.66-0.672-0.084-1.684-1.347-2.024-1.809-0.687-0.935-1.391-1.969-2.251-2.745-0.543-0.488-1.227-0.792-1.951-0.867-1.323-0.12-1.716 0.131-2.711 0.953 0.201 0.063 0.399 0.099 0.607 0.193 0.461 0.208 0.883 0.476 1.251 0.82 0.387 0.36 0.56 0.589 0.573 1.105 0.009 0.345-0.272 0.62-0.532 0.865-0.157 0.152-0.367 0.291-0.496 0.409-0.169 0.156-0.38 0.328-0.165 0.576 0.080 0.093 0.22 0.164 0.336 0.252 0.188 0.137 0.1 0.651-0.144 0.789-0.301 0.181-0.684 0.148-0.951-0.081 0.328-0.047 0.536-0.091 0.527-0.36-0.003-0.153-0.199-0.284-0.396-0.372-0.467-0.213-0.819-0.18-1.284-0.516-0.471-0.339-0.479-0.524-0.607-1.053-0.227 0.023-0.436 0.028-0.74 0.129-0.301 0.099-0.637 0.339-0.912 0.399-0.693 0.148-0.831 0.104-1.209 0.008-0.668-0.176-1.535 0.12-2.4 0.399-0.143 0.044-0.724 0-1.115 0.136-0.704 0.279-1.359 0.661-1.943 1.137-0.741 0.625-1.715 2.492-2.264 4.636-0.060 0.653 0.127 1.091-0.284 1.409-0.411 0.32-0.4 1.135-0.54 1.364-0.137 0.227-0.3 0.125-0.6 0.448-0.297 0.32-0.449 0.268-0.443 0.872 0.26-0.167 0.636-0.364 0.967-0.38 0.295-0.008 0.296 0.377 1.047-0.364 0.401-0.399 1.175-0.412 1.711-0.585s1.5-0.536 2.468-1.616c0.965-1.080 1.428-2.219 1.616-3.861 0.027 0.287 0.080 0.617-0.044 1.42-0.127 0.805-0.395 1.707 0.172 2.792l0.353 0.672c-0.209-0.287-0.62-0.755-0.747-1.088l-0.281-0.771c-0.64 1.004-0.787 1.183-1.673 1.9-0.035 0.445-0.044 0.909 0.101 1.336 0.144 0.427-0.085 0.917 0.027 1.2 0.109 0.279 0.364 0.12 0.448 0.404s-0.043 0.847 0.085 1.123c0.132 0.276 0.449 0.109 0.604 0.2 0.153 0.088 0.205 0.211 0.287 0.328 0.084 0.117-0.031 0.396 0.137 0.487 0.168 0.088 0.427 0.013 0.604 0.099 0.173 0.088 0.199 0.297 0.159 0.481-0.043 0.188-0.229 0.273-0.311 0.464-0.083 0.159-0.073 0.349 0.027 0.497 0.099 0.175 0.315 0.268 0.533 0.36 0.216 0.085 0.521 0.036 0.745 0.159 0.225 0.12 0.427 0.364 0.544 0.541 0.119 0.175 0.151 0.3 0.145 0.484-0.019 0.205-0.079 0.401-0.183 0.579-0.099 0.18-0.315 0.399 0.027 0.74 0.339 0.339 0.328 0.193 0.524 0.417-0.023-0.385-0.18-0.695-0.065-0.984 0.117-0.289 0.465-0.341 0.645-0.469 0.185-0.133 0.292-0.309 0.435-0.464 0 0.197 0.020 0.412-0.003 0.56-0.044 0.303-0.136 0.576 0.316 0.623 0.204 0.021 0.399-0.109 0.612-0.188-0.112 0.197-0.307 0.36-0.337 0.601-0.037 0.26 0.024 0.527 0.173 0.745 0.165 0.24 0.455 0.417 0.665 0.555 0.211 0.14 0.325 0.153 0.487 0.232 0.008 0.235-0.040 0.484-0.012 0.708 0.025 0.224 0.097 0.419 0.225 0.604 0.131 0.188 0.336 0.292 0.531 0.427-0.107-0.251-0.323-0.487-0.32-0.748s0.080-0.445 0.336-0.68c0.255-0.232 0.852-0.432 1.133-0.659 0.208-0.145 0.372-0.347 0.473-0.581 0.1-0.219 0.073-0.573 0.092-0.768 0.092 0.273 0.105 0.36 0.137 0.648 0.028 0.289-0.169 0.695-0.252 0.907 0.304-0.14 0.545-0.391 0.68-0.7 0.076 0.047 0.037 0.167 0.065 0.401 0.125-0.123 0.265-0.216 0.391-0.333s0.26-0.219 0.324-0.383c0.061-0.161 0.036-0.336-0.009-0.524-0.047-0.191-0.257-0.409-0.372-0.617-0.112-0.203 0.021-0.407 0.013-0.656-0.227-0.039-0.419-0.156-0.683-0.117-0.26 0.039-0.56 0.331-0.828 0.336-0.265 0-0.419-0.251-0.637-0.317-0.22-0.071-0.44-0.060-0.66-0.093 0.279-0.265 1.361-0.393 2.101-0.513 0.648-0.109 1.304-0.167 1.96-0.177 0.295-0.008 0.675 0.091 0.881 0.033 0.203-0.060 0.159-0.2 0.219-0.352 0.172-0.424 0.088-0.805-0.005-1.232-0.592-0.071-1.211-0.153-1.808-0.109-0.584 0.044-1.275 0.323-1.879 0.341-0.523 0.019-1.301-0.099-1.749-0.375-0.551-0.333-0.975-1.052-1.127-1.287-0.245-0.375-0.555-1.115-0.745-1.451-0.188-0.339-0.231-0.432-0.387-0.573-0.157-0.14-0.371-0.151-0.559-0.227 0.215 0.019 0.448-0.047 0.643 0.063 0.295 0.169 0.62 0.864 0.803 1.169 0.193-0.648 0.148-0.901 0.705-1.268-0.448 0.505-0.461 0.888-0.571 1.481 0.375 0.612 0.893 1.591 1.573 1.861 0.248 0.099 0.669 0.159 0.935 0.193 0.828 0.101 1.627-0.159 2.437-0.36 0.593-0.148 1.196-0.088 1.917-0.047 0.244 0.016 0.821-0.133 0.943-0.377 0.069-0.143 0.056-0.309-0.032-0.44-0.093-0.14-0.34-0.211-0.473-0.339-0.132-0.131-0.208-0.281-0.313-0.419-0.467 0.091-0.939 0.14-1.416 0.153 0.295-0.12 0.577-0.188 0.88-0.307 0.316-0.131 0.617-0.292 0.901-0.479 0.248-0.164 0.404-0.257 0.584-0.445 0.179-0.191 0.407-0.385 0.539-0.617s0.152-0.492 0.16-0.779c0.005-0.287-0.007-0.688-0.117-0.921-0.112-0.229-0.324-0.3-0.496-0.352-0.169-0.055-0.288 0.084-0.465 0.101-0.179 0.019-0.344 0.128-0.603 0.008-0.331-0.172-0.615-0.424-0.823-0.732-0.261-0.365-0.447-0.964-0.712-1.424-0.457-0.795-1.028-1.532-1.572-2.269-0.047-0.18-0.112-0.432-0.136-0.677-0.041-0.429-0.047-0.875 0.087-1.292 0.1-0.32 0.251-0.659 0.584-0.789 0.133-0.057 0.283-0.068 0.423-0.029 0.12 0.043 0.239 0.18 0.189 0.336-0.052 0.172-0.169 0.179-0.251 0.264-0.121 0.121-0.204 0.273-0.244 0.44 0.148-0.005 0.349-0.015 0.472 0.017 0.16 0.040 0.305 0.147 0.388 0.372-0.191-0.168-0.284-0.247-0.52-0.251-0.111-0.003-0.243 0.035-0.361 0.055-0.045 0.144-0.072 0.324-0.135 0.439-0.065 0.112-0.188 0.084-0.235 0.215-0.044 0.171-0.052 0.348-0.027 0.521h0.005zM21.972 12.167c0.075 0.028 0.1 0.036 0.195 0.107 0.092 0.069 0.22 0.139 0.293 0.305 0.059 0.172 0.077 0.355 0.053 0.533-0.064-0.020-0.151-0.007-0.217-0.063-0.067-0.057-0.105-0.187-0.191-0.24-0.087-0.057-0.156-0.045-0.251-0.057 0.051 0.128 0.067 0.265 0.048 0.401-0.048 0.271-0.208 0.409-0.469 0.44-0.112 0.016-0.292-0.021-0.389-0.039 0.045 0.1 0.121 0.191 0.168 0.292 0.219-0.031 0.38-0.027 0.5-0.081 0.117-0.055 0.244-0.18 0.395-0.231 0.151-0.052 0.285-0.052 0.451-0.079-0.131 0.112-0.216 0.223-0.345 0.337l0.285 0.831c0.203 0.128 0.392 0.195 0.647 0.351 0.255 0.155 0.56 0.436 0.893 0.587 0.332 0.151 0.528 0.236 0.876 0.3 0.345 0.067 0.623 0.349 0.963 0.395 0.34 0.043 0.98 0.055 1.243 0.028 0.3-0.028 0.688-0.181 0.723-0.509-0.251 0.060-0.633 0.007-0.825-0.465-0.085-0.209-0.045-0.596-0.176-0.841-0.132-0.249-0.315-0.328-0.533-0.633s-0.575-0.785-0.773-1.193c-0.2-0.411-0.251-0.872-0.417-1.239-0.171-0.365-0.425-0.66-0.625-0.944-0.432-0.617-0.78-1.036-1.493-1.348-0.344-0.149-0.735-0.191-1.099-0.284-0.151 0.067-0.357 0.139-0.393 0.316-0.028 0.2 0.028 0.407 0.16 0.561 0.212 0.22 0.527 0.456 0.649 0.804 0.081 0.224 0.101 0.973 0.033 1.177-0.072 0.213-0.237 0.343-0.376 0.481zM22.041 13.941c-0.065 0.057-0.116 0.116-0.223 0.163-0.107 0.048-0.252 0.060-0.393 0.095 0.197 0.308 0.407 0.621 0.596 0.945 0.191 0.323 0.355 0.68 0.535 1.020-0.009-0.196 0.003-0.403-0.025-0.584s-0.111-0.339-0.193-0.615c-0.080-0.275-0.18-0.645-0.296-1.024zM16.709 7.159c-0.028 0.301 0.025 0.775 0.085 1.075 0.077 0.356 0.148 0.539 0.437 0.752 0.528 0.393 0.864 0.327 1.273 0.555 0.193 0.108 0.437 0.289 0.509 0.479 0.071 0.195-0.048 0.401-0.195 0.484 0.256 0.039 0.544-0.252 0.424-0.547-0.060-0.145-0.34-0.213-0.427-0.361-0.079-0.136-0.093-0.299-0.044-0.447 0.071-0.269 0.605-0.517 0.796-0.728 0.291-0.331 0.4-0.604 0.236-1.027-0.229-0.593-1.123-1.072-1.656-1.305-0.244-0.107-0.383-0.112-0.572-0.172 0.389 0.232 0.801 0.413 1 0.921 0.164 0.428 0.020 0.591 0.028 0.961 0.003 0.173 0.229 0.26 0.331 0.367 0.085 0.096 0.080 0.167 0.011 0.297-0.005-0.107-0.060-0.205-0.148-0.265-0.149-0.107-0.312-0.084-0.392-0.3-0.12-0.331 0.121-0.645-0.149-1.016-0.2-0.277-0.471-0.588-0.833-0.596-0.164-0.001-0.325 0.024-0.48 0.077l-0.244-0.293-0.007-0.004c-0.496-0.452-0.836-0.825-1.529-1.136-0.696-0.312-1.040-0.36-1.839-0.341-0.796 0.017-1.587 0.084-2.511 0.88-0.925 0.8-3.308 3.851-3.887 4.236-0.575 0.385-0.703 0.519-1.424 0.519s-1.849-1.021-1.893-2.297c-0.043-1.275-0.060-1.729 0.825-3.265 0.888-1.536 2.492-2.008 3.685-2.167 1.193-0.161 1.909 0.259 2.789 0.26 0.88 0.003 1.752-0.148 2.011-0.849-0.127 0.075-0.295 0.16-0.769 0.135-0.473-0.025-1.132-0.575-1.869-0.941-0.74-0.368-1.56-0.412-2.616-0.431-1.053-0.020-2.369 0.060-3.673 0.765-1.304 0.7-2.193 1.447-2.951 2.827-0.757 1.377-0.869 2.5-0.747 4.169 0.12 1.667 0.636 2.908 1.625 4.131 0.992 1.219 1.981 1.817 3.765 2.039l0.377-1.656-0.672 0.961 0.019-1.071-0.607 0.753-0.269-1.023-0.489 0.82-0.244-1.14-0.715 0.576 0.227-0.94-0.943 0.104 0.432-0.655-0.859 0.008 0.5-0.871-0.76-0.121 0.605-0.795-0.931-0.275 0.771-0.74-0.764-0.623 0.597-0.464-0.56-0.745 0.597-0.693-0.223-0.913 0.505-0.439 0.151-1.048 0.568-0.285 0.488-0.815 0.903-0.096 0.445-0.737 0.907 0.047 0.856-0.464 0.888 0.205 1.008-0.304 0.749 0.173 0.975 0.144 0.94 0.752-1.441-0.503-0.725 0.347-0.601-0.364-0.413 0.279-0.733 0.076-0.655-0.040-0.477 0.581-0.976 0.009-0.347 0.785-0.867 0.304-0.081 0.904-0.623 0.488 0.207 0.849-0.536 0.885 0.413 0.775-0.407 0.705 0.539 0.352-0.12 1.137 0.751 0.188 0.167 0.844 0.817-0.084 0.508 0.579 0.627-0.615c1.144-0.571 1.616-0.891 2.509-1.855 1.012-1.097 1.595-2.112 2.944-2.863 0.972-0.54 1.761-0.735 2.852-0.544 1.021 0.176 1.365 0.791 2.12 1.436 0.081-0.145 0.093-0.185 0.225-0.291-0.040 0.189-0.105 0.383-0.124 0.564l-0.003-0.001z"></path>
</symbol>
<symbol id="icon-wikipedia" viewBox="0 0 32 32">
<title>wikipedia</title>
<path d="M16.12 17.492c-1.248 2.576-2.956 6.064-3.804 7.637-0.821 1.432-1.503 1.241-2.043 0.039-1.875-4.428-5.724-12.192-7.535-16.545-0.335-0.801-0.588-1.316-0.825-1.519-0.241-0.2-0.739-0.32-1.496-0.361-0.28-0.032-0.417-0.1-0.417-0.212v-0.607l0.069-0.060c1.232-0.007 7.201 0 7.201 0l0.068 0.060v0.579c0 0.159-0.1 0.235-0.3 0.235l-0.752 0.041c-0.647 0.039-0.969 0.219-0.969 0.581 0 0.18 0.071 0.44 0.221 0.801 1.443 3.528 6.424 14.028 6.424 14.028l0.181 0.061 3.215-6.413-0.643-1.423-2.211-4.352s-0.424-0.872-0.571-1.163c-0.971-1.924-0.949-2.024-1.929-2.156-0.276-0.031-0.417-0.067-0.417-0.199v-0.624l0.080-0.060h5.723l0.151 0.049v0.601c0 0.14-0.101 0.2-0.303 0.2l-0.411 0.063c-1.056 0.081-0.881 0.508-0.181 1.896l2.109 4.336 2.344-4.672c0.391-0.853 0.311-1.068 0.148-1.263-0.093-0.112-0.407-0.293-1.083-0.32l-0.268-0.028c-0.069 0-0.131-0.020-0.193-0.068-0.060-0.041-0.089-0.101-0.089-0.172v-0.569l0.081-0.060c1.663-0.011 5.391 0 5.391 0l0.079 0.060v0.581c0 0.161-0.079 0.237-0.257 0.237-0.861 0.040-1.043 0.127-1.364 0.585-0.16 0.248-0.5 0.785-0.861 1.385l-3.068 5.697-0.087 0.18 3.723 7.616 0.227 0.064 5.861-13.917c0.205-0.563 0.172-0.963-0.085-1.193-0.263-0.229-0.461-0.364-1.143-0.393l-0.56-0.021c-0.081 0-0.14-0.019-0.203-0.060-0.057-0.039-0.096-0.1-0.096-0.159v-0.581l0.079-0.060h6.615l0.055 0.060v0.583c0 0.159-0.099 0.24-0.279 0.24-0.864 0.040-1.503 0.24-1.924 0.561-0.419 0.34-0.743 0.821-0.981 1.423 0 0-5.391 12.344-7.235 16.452-0.7 1.343-1.404 1.223-2.004-0.041-0.761-1.561-2.364-5.048-3.528-7.613l0.071-0.048z"></path>
</symbol>
<symbol id="icon-blender" viewBox="0 0 32 32">
<title>blender</title>
<path d="M16.68 17.619c0.061-1.067 0.584-2.008 1.373-2.675 0.785-0.655 1.804-1.053 2.917-1.053 0.011 0 0.023 0 0.034 0h-0.002c1.133 0 2.175 0.4 2.948 1.053 0.789 0.667 1.311 1.608 1.371 2.673 0.060 1.097-0.38 2.115-1.153 2.871-0.81 0.774-1.91 1.251-3.121 1.251-0.016 0-0.031-0-0.047-0l0.002 0c-0.013 0-0.029 0-0.045 0-1.212 0-2.313-0.477-3.125-1.253l0.002 0.002c-0.773-0.756-1.213-1.773-1.153-2.869z"></path>
<path d="M9.8 19.775c0.008 0.419 0.141 1.229 0.341 1.864 0.46 1.427 1.187 2.656 2.13 3.683l-0.006-0.007c1.020 1.118 2.257 2.020 3.646 2.64l0.070 0.028c1.416 0.64 3.070 1.014 4.812 1.014 0.024 0 0.048-0 0.072-0l-0.004 0c0.007 0 0.015 0 0.024 0 1.757 0 3.425-0.379 4.928-1.060l-0.075 0.030c1.458-0.654 2.694-1.559 3.705-2.671l0.008-0.009c0.935-1.023 1.662-2.253 2.103-3.613l0.020-0.070c0.271-0.832 0.427-1.789 0.427-2.783 0-0.464-0.034-0.92-0.1-1.366l0.006 0.051c-0.203-1.394-0.681-2.646-1.378-3.744l0.023 0.039c-0.672-1.066-1.492-1.967-2.446-2.706l-0.024-0.018h0.003l-10.024-7.696c-0.656-0.504-1.759-0.501-2.48 0.003-0.729 0.509-0.812 1.353-0.164 1.887l-0.001 0.001 4.168 3.391-12.724 0.013c-1.051 0.001-2.060 0.691-2.26 1.563-0.205 0.887 0.507 1.623 1.6 1.627v0.003l6.44-0.013-11.539 8.856c-1.084 0.829-1.433 2.211-0.751 3.084 0.693 0.889 2.167 0.891 3.263 0.005l6.272-5.132s-0.092 0.693-0.084 1.108zM25.92 22.096c-1.293 1.317-3.101 2.064-5.060 2.067-1.96 0.005-3.769-0.736-5.063-2.051-0.595-0.597-1.065-1.318-1.368-2.121l-0.014-0.041c-0.213-0.574-0.336-1.238-0.336-1.93 0-1.013 0.264-1.965 0.727-2.79l-0.015 0.029c0.404-0.718 0.918-1.324 1.526-1.819l0.012-0.009c1.256-1.024 2.855-1.577 4.528-1.58 1.675-0.003 3.273 0.547 4.531 1.567 0.64 0.521 1.16 1.139 1.536 1.823 0.372 0.657 0.62 1.429 0.694 2.253l0.002 0.022c0.013 0.146 0.021 0.315 0.021 0.486 0 0.692-0.125 1.355-0.352 1.968l0.013-0.039c-0.317 0.846-0.786 1.569-1.38 2.168l0-0z"></path>
</symbol>
<symbol id="icon-linux" viewBox="0 0 32 32">
<title>linux</title>
<path d="M16.671 0c-0.207 0-0.42 0.011-0.639 0.028-5.636 0.444-4.141 6.409-4.227 8.397-0.103 1.457-0.4 2.605-1.401 4.028-1.18 1.401-2.836 3.667-3.621 6.028-0.371 1.109-0.547 2.245-0.383 3.319-0.052 0.045-0.101 0.091-0.148 0.18-0.347 0.357-0.599 0.801-0.883 1.119-0.265 0.265-0.647 0.356-1.063 0.533-0.417 0.181-0.877 0.359-1.152 0.908-0.12 0.251-0.181 0.524-0.176 0.801 0 0.265 0.036 0.535 0.073 0.715 0.077 0.532 0.155 0.972 0.052 1.293-0.331 0.907-0.372 1.528-0.14 1.98 0.232 0.445 0.713 0.625 1.252 0.801 1.081 0.267 2.547 0.18 3.7 0.799 1.235 0.623 2.488 0.895 3.488 0.627 0.701-0.153 1.293-0.617 1.611-1.26 0.783-0.004 1.64-0.359 3.013-0.445 0.932-0.077 2.099 0.356 3.437 0.265 0.033 0.18 0.084 0.265 0.152 0.445l0.004 0.004c0.521 1.037 1.484 1.509 2.512 1.428 1.028-0.080 2.123-0.715 3.009-1.741 0.841-1.020 2.244-1.445 3.171-2.004 0.464-0.265 0.839-0.625 0.865-1.137 0.031-0.533-0.265-1.083-0.952-1.836v-0.129l-0.004-0.004c-0.227-0.267-0.333-0.713-0.451-1.235-0.113-0.535-0.243-1.048-0.656-1.395h-0.004c-0.079-0.072-0.164-0.089-0.251-0.18-0.075-0.051-0.161-0.083-0.253-0.085 0.575-1.704 0.352-3.4-0.231-4.925-0.711-1.88-1.953-3.517-2.9-4.644-1.061-1.34-2.101-2.609-2.081-4.492 0.036-2.869 0.316-8.177-4.725-8.185zM17.376 4.54h0.017c0.284 0 0.528 0.083 0.779 0.264 0.255 0.18 0.44 0.443 0.585 0.711 0.14 0.345 0.211 0.612 0.221 0.965 0-0.027 0.008-0.053 0.008-0.079v0.139c-0.003-0.009-0.005-0.020-0.005-0.028l-0.005-0.032c-0.003 0.324-0.071 0.644-0.2 0.941-0.063 0.167-0.159 0.32-0.284 0.447-0.039-0.021-0.076-0.040-0.117-0.056-0.14-0.060-0.265-0.085-0.38-0.177-0.095-0.037-0.193-0.068-0.292-0.088 0.065-0.079 0.193-0.177 0.243-0.264 0.071-0.171 0.109-0.352 0.117-0.536v-0.025c0.003-0.18-0.024-0.361-0.081-0.533-0.060-0.18-0.135-0.268-0.244-0.445-0.112-0.088-0.223-0.176-0.356-0.176h-0.021c-0.124 0-0.235 0.040-0.349 0.176-0.127 0.125-0.221 0.276-0.273 0.445-0.071 0.169-0.112 0.352-0.12 0.533v0.025c0.003 0.119 0.011 0.239 0.027 0.356-0.257-0.089-0.584-0.18-0.809-0.269-0.013-0.087-0.021-0.176-0.024-0.265v-0.027c-0.011-0.352 0.057-0.701 0.2-1.025 0.109-0.292 0.309-0.541 0.573-0.711 0.228-0.172 0.505-0.265 0.792-0.265zM13.427 4.619h0.048c0.189 0 0.36 0.064 0.532 0.18 0.195 0.172 0.352 0.384 0.459 0.62 0.12 0.265 0.188 0.535 0.204 0.889v0.005c0.009 0.179 0.008 0.268-0.003 0.355v0.107c-0.040 0.009-0.075 0.024-0.111 0.032-0.203 0.073-0.365 0.18-0.524 0.267 0.016-0.119 0.017-0.239 0.004-0.356v-0.020c-0.016-0.177-0.052-0.265-0.109-0.444-0.041-0.136-0.117-0.257-0.221-0.356-0.065-0.060-0.153-0.091-0.244-0.085h-0.028c-0.095 0.008-0.173 0.055-0.248 0.176-0.085 0.103-0.14 0.228-0.16 0.36-0.036 0.144-0.047 0.292-0.031 0.441v0.019c0.016 0.18 0.049 0.268 0.108 0.445 0.060 0.179 0.129 0.267 0.22 0.357 0.015 0.012 0.028 0.024 0.045 0.032-0.093 0.076-0.156 0.093-0.235 0.181-0.049 0.037-0.107 0.080-0.175 0.091-0.139-0.167-0.261-0.347-0.367-0.536-0.128-0.28-0.195-0.584-0.207-0.889-0.023-0.301 0.015-0.603 0.107-0.891 0.073-0.263 0.203-0.505 0.377-0.713 0.171-0.177 0.347-0.267 0.557-0.267zM15.255 6.893c0.441 0 0.976 0.087 1.62 0.532 0.391 0.267 0.697 0.359 1.404 0.624h0.004c0.34 0.181 0.54 0.355 0.637 0.532v-0.175c0.097 0.196 0.104 0.424 0.021 0.627-0.164 0.415-0.688 0.859-1.419 1.124v0.003c-0.357 0.18-0.668 0.444-1.033 0.62-0.368 0.18-0.784 0.389-1.349 0.356-0.203 0.011-0.407-0.020-0.597-0.089-0.147-0.080-0.291-0.168-0.429-0.264-0.26-0.18-0.484-0.443-0.816-0.62v-0.007h-0.007c-0.533-0.328-0.821-0.683-0.915-0.948-0.092-0.357-0.007-0.625 0.257-0.8 0.299-0.18 0.507-0.361 0.644-0.448 0.139-0.099 0.191-0.136 0.235-0.175h0.003v-0.004c0.225-0.269 0.581-0.625 1.119-0.801 0.185-0.048 0.392-0.087 0.621-0.087zM18.987 9.751c0.479 1.889 1.596 4.633 2.315 5.964 0.381 0.712 1.14 2.212 1.469 4.032 0.208-0.007 0.439 0.024 0.684 0.085 0.861-2.228-0.728-4.623-1.452-5.288-0.295-0.268-0.309-0.447-0.164-0.447 0.785 0.712 1.82 2.096 2.195 3.676 0.172 0.713 0.212 1.472 0.028 2.227 0.089 0.037 0.18 0.081 0.273 0.089 1.376 0.712 1.884 1.251 1.64 2.049v-0.057c-0.081-0.004-0.16 0-0.241 0h-0.020c0.201-0.623-0.243-1.1-1.42-1.632-1.22-0.533-2.195-0.448-2.361 0.62-0.009 0.057-0.016 0.088-0.023 0.18-0.091 0.031-0.185 0.071-0.279 0.085-0.573 0.357-0.883 0.892-1.057 1.583-0.173 0.711-0.227 1.541-0.273 2.492v0.004c-0.028 0.445-0.228 1.117-0.425 1.801-2 1.429-4.773 2.051-7.132 0.445-0.148-0.257-0.328-0.499-0.536-0.711-0.099-0.167-0.224-0.316-0.367-0.445 0.243 0 0.451-0.039 0.62-0.089 0.193-0.089 0.343-0.251 0.419-0.445 0.144-0.356 0-0.929-0.46-1.551-0.46-0.623-1.241-1.327-2.384-2.028-0.84-0.532-1.315-1.16-1.533-1.861-0.22-0.712-0.191-1.447-0.020-2.193 0.327-1.427 1.164-2.813 1.699-3.684 0.143-0.087 0.049 0.18-0.544 1.299-0.528 1.001-1.521 3.329-0.163 5.139 0.051-1.319 0.344-2.62 0.863-3.835 0.752-1.704 2.324-4.672 2.448-7.024 0.064 0.048 0.289 0.18 0.385 0.269 0.291 0.177 0.507 0.444 0.787 0.62 0.281 0.268 0.636 0.447 1.168 0.447 0.052 0.004 0.1 0.008 0.148 0.008 0.548 0 0.972-0.179 1.328-0.357 0.387-0.179 0.695-0.445 0.987-0.533h0.007c0.623-0.18 1.115-0.536 1.393-0.933zM21.901 21.695c0.049 0.801 0.457 1.66 1.176 1.836 0.784 0.179 1.912-0.444 2.388-1.020l0.281-0.012c0.42-0.011 0.769 0.013 1.129 0.356l0.004 0.004c0.277 0.265 0.407 0.708 0.521 1.168 0.113 0.535 0.205 1.040 0.545 1.421 0.648 0.703 0.86 1.208 0.848 1.52l0.004-0.008v0.024l-0.004-0.016c-0.020 0.349-0.247 0.528-0.664 0.793-0.84 0.535-2.328 0.949-3.276 2.093-0.824 0.983-1.828 1.519-2.715 1.588-0.885 0.071-1.649-0.267-2.099-1.197l-0.007-0.004c-0.28-0.535-0.16-1.367 0.075-2.253 0.235-0.891 0.571-1.793 0.617-2.531 0.049-0.952 0.101-1.78 0.26-2.419 0.16-0.62 0.411-1.063 0.855-1.312l0.060-0.029zM7.481 21.76h0.013c0.071 0 0.14 0.007 0.209 0.019 0.501 0.073 0.941 0.444 1.364 1.003l1.213 2.219 0.004 0.004c0.324 0.711 1.005 1.419 1.585 2.184 0.579 0.797 1.027 1.508 0.972 2.093v0.008c-0.076 0.992-0.639 1.531-1.5 1.725-0.86 0.18-2.027 0.003-3.193-0.619-1.291-0.715-2.824-0.625-3.809-0.803-0.492-0.088-0.815-0.268-0.964-0.535-0.148-0.265-0.151-0.801 0.164-1.64v-0.004l0.003-0.004c0.156-0.445 0.040-1.004-0.036-1.492-0.073-0.535-0.111-0.945 0.057-1.253 0.213-0.445 0.528-0.532 0.919-0.711 0.393-0.18 0.855-0.269 1.221-0.625h0.003v-0.004c0.341-0.357 0.593-0.801 0.891-1.117 0.253-0.268 0.507-0.448 0.884-0.448zM17.027 9.661c-0.58 0.268-1.26 0.713-1.984 0.713-0.723 0-1.293-0.356-1.705-0.621-0.207-0.179-0.373-0.357-0.499-0.447-0.219-0.179-0.192-0.445-0.099-0.445 0.145 0.021 0.172 0.18 0.265 0.268 0.128 0.088 0.287 0.265 0.481 0.444 0.388 0.267 0.907 0.623 1.555 0.623 0.647 0 1.404-0.356 1.864-0.621 0.26-0.18 0.593-0.445 0.864-0.623 0.208-0.183 0.199-0.357 0.372-0.357 0.172 0.021 0.045 0.179-0.196 0.444-0.241 0.18-0.615 0.447-0.92 0.624v-0.001zM15.584 7.549v-0.029c-0.008-0.025 0.017-0.056 0.039-0.067 0.099-0.057 0.24-0.036 0.347 0.005 0.084 0 0.213 0.089 0.2 0.18-0.008 0.065-0.113 0.088-0.18 0.088-0.073 0-0.123-0.057-0.188-0.091-0.069-0.024-0.195-0.011-0.217-0.087zM14.849 7.549c-0.027 0.077-0.151 0.065-0.221 0.088-0.063 0.033-0.115 0.091-0.185 0.091-0.068 0-0.175-0.025-0.183-0.091-0.012-0.088 0.117-0.177 0.2-0.177 0.108-0.041 0.245-0.063 0.345-0.007 0.025 0.012 0.048 0.040 0.040 0.067v0.028h0.004z"></path>
</symbol>
<symbol id="icon-overcast" viewBox="0 0 32 32">
<title>overcast</title>
<path d="M16 32c-8.815 0.024-15.977-7.105-16-15.919v-0.081c0-8.867 7.135-16 16-16s16 7.133 16 16c0 8.865-7.135 16-16 16zM16 25.665l1.2-1.199-1.2-4.6-1.2 4.6 1.2 1.199zM14.467 25.599l-0.6 2.268 1.4-1.403-0.8-0.865zM17.533 25.599l-0.8 0.801 1.4 1.401-0.6-2.203zM18.667 29.735l-2.667-2.668-2.667 2.668c0.867 0.133 1.733 0.265 2.667 0.265s1.8-0.067 2.667-0.265zM16 2c-7.732 0-14 6.268-14 14-0.011 5.957 3.767 11.261 9.401 13.199l3-11.133c-0.681-0.496-1.079-1.291-1.068-2.133 0-1.468 1.2-2.668 2.667-2.668s2.667 1.2 2.667 2.668c0 0.865-0.401 1.6-1.068 2.133l3 11.133c5.636-1.937 9.413-7.243 9.401-13.199 0-7.732-6.268-14-14-14zM25.133 22.933c-0.34 0.425-0.952 0.513-1.399 0.2-0.417-0.276-0.533-0.837-0.259-1.255 0.019-0.028 0.037-0.053 0.059-0.080 0 0 1.8-2.399 1.8-5.8s-1.8-5.8-1.8-5.8c-0.319-0.385-0.264-0.959 0.121-1.276 0.027-0.021 0.052-0.041 0.080-0.059 0.447-0.313 1.059-0.225 1.399 0.2 0.133 0.135 2.2 2.867 2.2 6.933s-2.069 6.803-2.201 6.936zM20.265 20.333c-0.4-0.4-0.332-1.133 0.068-1.533 0 0 1-1.065 1-2.8s-1-2.735-1-2.8c-0.4-0.401-0.4-1.068-0.068-1.533 0.309-0.404 0.888-0.476 1.292-0.167 0.039 0.029 0.075 0.063 0.109 0.099 0.068 0.068 1.667 1.735 1.667 4.401s-1.599 4.333-1.667 4.401c-0.401 0.399-1 0.333-1.401-0.068zM11.735 20.333c-0.401 0.401-1 0.467-1.401 0.068-0.068-0.136-1.667-1.735-1.667-4.401s1.599-4.265 1.667-4.401c0.401-0.399 1.068-0.399 1.401 0.068 0.4 0.4 0.332 1.133-0.068 1.533 0 0.065-1 1.065-1 2.8s1 2.8 1 2.8c0.4 0.4 0.468 1.065 0.068 1.533zM8.265 23.135c-0.447 0.312-1.059 0.225-1.4-0.2-0.131-0.135-2.199-2.868-2.199-6.935s2.068-6.8 2.199-6.933c0.341-0.425 0.953-0.515 1.4-0.2 0.417 0.275 0.533 0.837 0.259 1.255-0.017 0.027-0.037 0.053-0.057 0.079 0 0-1.8 2.399-1.8 5.8s1.8 5.8 1.8 5.8c0.333 0.4 0.2 1-0.201 1.335z"></path>
</symbol>
<symbol id="icon-nextdoor" viewBox="0 0 32 32">
<title>nextdoor</title>
<path d="M31.991 13.088l-15.991-9.791-5.493 3.365v-3.365h-5.008v6.425l-5.493 3.365 2.615 4.269 2.88-1.753v13.101h20.999v-13.101l2.879 1.753 2.613-4.269z"></path>
</symbol>
<symbol id="icon-rss" viewBox="0 0 32 32">
<title>rss</title>
<path d="M25.599 32c0-14.044-11.555-25.6-25.599-25.6v-6.4c17.553 0 32 14.447 32 32h-6.401zM4.388 23.22c2.419 0 4.391 1.972 4.391 4.393 0 2.417-1.98 4.387-4.401 4.387-2.417 0-4.377-1.965-4.377-4.387s1.967-4.392 4.388-4.393zM21.212 32h-6.22c0-8.225-6.767-14.993-14.992-14.993v-6.22c11.636 0 21.212 9.579 21.212 21.213z"></path>
</symbol>
<symbol id="icon-unsplash" viewBox="0 0 32 32">
<title>unsplash</title>
<path d="M20.8 18.1c0 2.7-2.2 4.8-4.8 4.8s-4.8-2.1-4.8-4.8c0-2.7 2.2-4.8 4.8-4.8 2.7 0.1 4.8 2.2 4.8 4.8zM32 10.7v14.9c0 2.3-1.9 4.3-4.3 4.3h-23.4c-2.4 0-4.3-1.9-4.3-4.3v-15c0-2.3 1.9-4.3 4.3-4.3h3.7l0.8-2.3c0.4-1.1 1.7-2 2.9-2h8.6c1.2 0 2.5 0.9 2.9 2l0.8 2.4h3.7c2.4 0 4.3 1.9 4.3 4.3zM23.4 18.2c0-4.1-3.3-7.5-7.5-7.5-4.1 0-7.5 3.4-7.5 7.5s3.3 7.5 7.5 7.5c4.2-0.1 7.5-3.4 7.5-7.5z"></path>
</symbol>
<symbol id="icon-macys" viewBox="0 0 32 32">
<title>macys</title>
<path d="M16.020 0.832l-3.767 11.559h-12.253l9.927 7.179-3.759 11.564 9.832-7.152 9.896 7.191-3.78-11.617 9.884-7.165h-12.216l-3.764-11.557z"></path>
</symbol>
<symbol id="icon-mailru" viewBox="0 0 32 32">
<title>mailru</title>
<path d="M15.447 7.023c2.445 0 4.744 1.081 6.432 2.773v0.005c0-0.812 0.547-1.424 1.305-1.424h0.193c1.188 0 1.431 1.123 1.431 1.479l0.007 12.633c-0.084 0.828 0.853 1.255 1.372 0.724 2.028-2.085 4.456-10.717-1.261-15.72-5.328-4.663-12.476-3.895-16.279-1.273-4.041 2.788-6.628 8.957-4.115 14.752 2.739 6.32 10.575 8.203 15.232 6.325 2.359-0.953 3.448 2.235 0.999 3.276-3.701 1.579-14.003 1.419-18.813-6.917-3.252-5.628-3.079-15.532 5.544-20.663 6.596-3.924 15.293-2.837 20.536 2.639 5.481 5.725 5.163 16.445-0.185 20.615-2.421 1.893-6.021 0.049-5.997-2.708l-0.025-0.904c-1.687 1.675-3.931 2.651-6.376 2.651-4.833 0-9.084-4.252-9.084-9.083 0-4.879 4.252-9.18 9.085-9.18zM21.528 15.853c-0.183-3.537-2.808-5.665-5.979-5.665h-0.12c-3.66 0-5.691 2.879-5.691 6.147 0 3.663 2.456 5.975 5.675 5.975 3.591 0 5.952-2.631 6.123-5.741l-0.008-0.715z"></path>
</symbol>
</defs>
</svg>
